<?xml version="1.0" encoding="utf-8"?>
<!-- Generator: Adobe Illustrator 24.3.0, SVG Export Plug-In . SVG Version: 6.00 Build 0)  -->
<svg version="1.1" id="Layer_1" xmlns="http://www.w3.org/2000/svg" xmlns:xlink="http://www.w3.org/1999/xlink" x="0px" y="0px"
	 viewBox="0 0 537.24 465.6" style="enable-background:new 0 0 537.24 465.6;" xml:space="preserve">
<style type="text/css">
	.st0{fill:var(--second-p-color,#FFFFFF);}
	.st1{fill:#A46041;}
	.st2{fill:#E96258;}
	.st3{fill:#819554;}
	.st4{fill:#8F78B6;}
	.st5{fill:#809454;}
	.st6{fill:#F6BD33;}
	.st7{fill:#A3613F;}
	.st8{fill:#43614C;}
	.st9{fill:#43604C;}
	.st10{fill:#917BB7;}
	.st11{fill:#F6BC36;}
	.st12{fill:#B73E38;}
	.st13{fill:#809253;}
	.st14{fill:#45624B;}
	.st15{fill:#446246;}
	.st16{fill:#763519;}
	.st17{fill:#743519;}
	.st18{fill:#516449;}
	.st19{fill:#733519;}
	.st20{fill:#A35F3D;}
	.st21{fill:#A5623F;}
	.st22{fill:#A15F3C;}
	.st23{fill:#743418;}
	.st24{fill:#77361B;}
	.st25{fill:#78371B;}
	.st26{fill:#793519;}
	.st27{fill:#743218;}
	.st28{fill:#C03D37;}
	.st29{fill:#BF3B37;}
	.st30{fill:#BC3B36;}
	.st31{fill:#BF3C37;}
	.st32{fill:#466547;}
	.st33{fill:#C2793A;}
	.st34{fill:#FACB0E;}
	.st35{fill:#F49B20;}
	.st36{fill:#8DBB55;}
	.st37{fill:#F17123;}
	.st38{fill:#8EBE55;}
	.st39{fill:#599A50;}
	.st40{fill:#BC5C28;}
	.st41{fill:#F096B7;}
	.st42{fill:#F297B6;}
	.st43{fill:#F49B21;}
	.st44{fill:#DB2629;}
	.st45{fill:#EE75A2;}
	.st46{fill:#F17325;}
	.st47{fill:#F27324;}
	.st48{fill:#55974F;}
	.st49{fill:#8DBE53;}
	.st50{fill:#90BD53;}
	.st51{fill:#F7C910;}
	.st52{fill:#579950;}
	.st53{fill:#8FBC55;}
	.st54{fill:#F49D21;}
	.st55{fill:#589650;}
	.st56{fill:#8EBB54;}
	.st57{fill:#050505;}
	.st58{fill:#8EBC52;}
	.st59{fill:#599A51;}
	.st60{fill:#F9C511;}
	.st61{fill:#08080A;}
	.st62{fill:#8FBC54;}
	.st63{fill:#F8CA10;}
	.st64{fill:#B5DFE6;}
	.st65{fill:#090908;}
	.st66{fill:#F7C911;}
	.st67{fill:#579751;}
	.st68{fill:#0A0B0B;}
	.st69{fill:#93CBD3;}
	.st70{fill:#060605;}
	.st71{fill:#FBCB0D;}
	.st72{fill:#F6AA1E;}
	.st73{fill:#F4A31E;}
	.st74{fill:#0D0706;}
	.st75{fill:#F17927;}
	.st76{fill:#F07A2A;}
	.st77{fill:#F8CC13;}
	.st78{fill:#F7CC12;}
	.st79{fill:#ED7524;}
	.st80{fill:#ED7527;}
	.st81{fill:#90BC60;}
	.st82{fill:#EED9BC;}
	.st83{fill:#E4D4B9;}
	.st84{fill:#EADAC2;}
	.st85{fill:#442E1F;}
	.st86{fill:#3C2919;}
	.st87{fill:#2B1D14;}
	.st88{fill:#190907;}
	.st89{fill:#1B0C0A;}
	.st90{fill:#170907;}
	.st91{fill:#140706;}
	.st92{fill:#110706;}
	.st93{fill:#150C0B;}
	.st94{fill:#F7C711;}
	.st95{fill:#F7C810;}
	.st96{fill:#2D261B;}
	.st97{fill:#27221A;}
	.st98{fill:#232017;}
	.st99{fill:#3E311D;}
	.st100{fill:#292318;}
	.st101{fill:#342A1B;}
	.st102{fill:#FFF8F2;}
	.st103{fill:#60815A;}
	.st104{fill:#F37B64;}
	.st105{fill:#F7AF87;}
	.st106{fill:#F092A4;}
	.st107{fill:#8E8532;}
	.st108{fill:#385A3B;}
	.st109{fill:#F194A4;}
	.st110{fill:#375C3C;}
	.st111{fill:#F8E6CE;}
	.st112{fill:#5F8059;}
	.st113{fill:#918432;}
	.st114{fill:#62835C;}
	.st115{fill:#8F8533;}
	.st116{fill:#F8E4CD;}
	.st117{fill:#161216;}
	.st118{fill:#395F3F;}
	.st119{fill:#F8E1C7;}
	.st120{fill:#F1E3CD;}
	.st121{fill:#D3CCAC;}
	.st122{fill:#C2C9B8;}
	.st123{fill:#D2CBAB;}
	.st124{fill:#928736;}
	.st125{fill:#AFB6A9;}
	.st126{fill:#AFB6AA;}
	.st127{fill:#F37C63;}
	.st128{fill:#F6B086;}
	.st129{fill:#F294A4;}
	.st130{fill:#F7B087;}
	.st131{fill:#F37C62;}
	.st132{fill:#F37B61;}
	.st133{fill:#365C3D;}
	.st134{fill:#375B3B;}
	.st135{fill:#F37B63;}
	.st136{fill:#F37B66;}
	.st137{fill:#928332;}
	.st138{fill:#375C3B;}
	.st139{fill:#F193A3;}
	.st140{fill:#798BAF;}
	.st141{fill:#7B8DAD;}
	.st142{fill:#7A8DAD;}
	.st143{fill:#798BAC;}
	.st144{fill:#365C3C;}
	.st145{fill:#938533;}
	.st146{fill:#F37B62;}
	.st147{fill:#61845B;}
	.st148{fill:#908432;}
	.st149{fill:#908533;}
	.st150{fill:#928431;}
	.st151{fill:#375D3E;}
	.st152{fill:#385D3D;}
	.st153{fill:#928432;}
	.st154{fill:#3A5C3D;}
	.st155{fill:#62845C;}
	.st156{fill:#F6AE84;}
	.st157{fill:#3A5E3E;}
	.st158{fill:#395D3E;}
	.st159{fill:#B32B29;}
	.st160{fill:#60825B;}
	.st161{fill:#B22A28;}
	.st162{fill:#60825A;}
	.st163{fill:#B52B2A;}
	.st164{fill:#B52A2A;}
	.st165{fill:#B12A29;}
	.st166{fill:#B32928;}
	.st167{fill:#B22B29;}
	.st168{fill:#AE2829;}
	.st169{fill:#B32A27;}
	.st170{fill:#B32A28;}
	.st171{fill:#B42A28;}
	.st172{fill:#60815C;}
	.st173{fill:#928533;}
	.st174{fill:#141012;}
	.st175{fill:#171012;}
	.st176{fill:#181113;}
	.st177{fill:#161012;}
	.st178{fill:#908534;}
	.st179{fill:#8F8534;}
	.st180{fill:#F1B388;}
	.st181{fill:#F6B087;}
	.st182{fill:#F37C61;}
	.st183{fill:#F9E4CD;}
	.st184{fill:#F6B187;}
	.st185{fill:#1E1010;}
	.st186{fill:#1A1012;}
	.st187{fill:#1A0F11;}
	.st188{fill:#1B0F10;}
	.st189{fill:#1F0F11;}
	.st190{fill:#231215;}
	.st191{fill:#241215;}
	.st192{fill:#211011;}
	.st193{fill:#211112;}
	.st194{fill:#201010;}
	.st195{fill:#251112;}
	.st196{fill:#211113;}
	.st197{fill:#241313;}
	.st198{fill:#1B1113;}
	.st199{fill:#1E0F10;}
	.st200{fill:#211213;}
	.st201{fill:#1F1011;}
	.st202{fill:#251215;}
	.st203{fill:#240F0F;}
	.st204{fill:#1E1012;}
	.st205{fill:#26100F;}
	.st206{fill:#241214;}
	.st207{fill:#201113;}
	.st208{fill:#1F0E0F;}
	.st209{fill:#D8413C;}
	.st210{fill:#D3AA73;}
	.st211{fill:#87A147;}
	.st212{fill:#88A148;}
	.st213{fill:#A982B7;}
	.st214{fill:#89A24A;}
	.st215{fill:#FFFFFC;}
	.st216{fill:#FADC45;}
	.st217{fill:#598352;}
	.st218{fill:#588452;}
	.st219{fill:#87A046;}
	.st220{fill:#588453;}
	.st221{fill:#87A047;}
	.st222{fill:#5A8554;}
	.st223{fill:#EFE2C6;}
	.st224{fill:#FDDB46;}
	.st225{fill:#93CDD0;}
	.st226{fill:#E7AD23;}
	.st227{fill:#B6DFE9;}
	.st228{fill:#EFE0C5;}
	.st229{fill:#EFE2C7;}
	.st230{fill:#272726;}
	.st231{fill:#88A24A;}
	.st232{fill:#FBDA46;}
	.st233{fill:#25808B;}
	.st234{fill:#282726;}
	.st235{fill:#4196A2;}
	.st236{fill:#272625;}
	.st237{fill:#292828;}
	.st238{fill:#292726;}
	.st239{fill:#282626;}
	.st240{fill:#FADA44;}
	.st241{fill:#FAD943;}
	.st242{fill:#F9D842;}
	.st243{fill:#F9D942;}
	.st244{fill:#282625;}
	.st245{fill:#FADA48;}
	.st246{fill:#886496;}
	.st247{fill:#8B649A;}
	.st248{fill:#87A04A;}
	.st249{fill:#F8D643;}
	.st250{fill:#F7D541;}
	.st251{fill:#332D28;}
	.st252{fill:#3C3327;}
	.st253{fill:#473E2E;}
	.st254{fill:#F2DEBD;}
	.st255{fill:#86A048;}
	.st256{fill:#578352;}
	.st257{fill:#FFFCFC;}
	.st258{fill:#FCFDFC;}
	.st259{fill:#87A148;}
	.st260{fill:#5C874C;}
	.st261{fill:#8A633E;}
	.st262{fill:#909D48;}
	.st263{fill:#88A248;}
	.st264{fill:#598452;}
	.st265{fill:#2F2B29;}
	.st266{fill:#2E2A29;}
	.st267{fill:#2C2927;}
	.st268{fill:#588151;}
	.st269{fill:#DDCFA0;}
	.st270{fill:#4F4429;}
	.st271{fill:#433D22;}
	.st272{fill:#2D484D;}
	.st273{fill:#D1D0C8;}
	.st274{fill:#CED0C8;}
	.st275{fill:#D3D1CC;}
	.st276{fill:#C1C4BF;}
	.st277{fill:#5B844E;}
	.st278{fill:#EEDCB6;}
	.st279{fill:#9B9548;}
	.st280{fill:#323021;}
	.st281{fill:#939394;}
	.st282{fill:#999FA1;}
	.st283{fill:#F9F9F9;}
	.st284{fill:#F15822;}
	.st285{fill:#FDB813;}
	.st286{fill:#90CFA2;}
	.st287{fill:#0AB15A;}
	.st288{fill:#F179AF;}
	.st289{fill:#2C5BC6;}
	.st290{fill:#2D5AC1;}
	.st291{fill:#8FCD9E;}
	.st292{fill:#2C59C3;}
	.st293{fill:#2C5BC2;}
	.st294{fill:#8ECD9F;}
	.st295{fill:#921328;}
	.st296{fill:#940F28;}
	.st297{fill:#931228;}
	.st298{fill:#930F27;}
	.st299{fill:#2C5BC5;}
	.st300{fill:#2B5AC4;}
	.st301{fill:#2B5AC5;}
	.st302{fill:#2C5AC5;}
	.st303{fill:#C298C4;}
	.st304{fill:#8B1627;}
	.st305{fill:#8A1525;}
	.st306{fill:#8F1827;}
	.st307{fill:#8E1725;}
	.st308{fill:#8F1627;}
	.st309{fill:#8E1824;}
	.st310{fill:#881724;}
	.st311{fill:#911826;}
	.st312{fill:#941825;}
	.st313{fill:#8D1A24;}
	.st314{fill:#8ECB98;}
	.st315{fill:#90CB99;}
	.st316{fill:#F9A5CF;}
	.st317{fill:#8FCC9F;}
	.st318{fill:#8DCC95;}
	.st319{fill:#8ECC96;}
	.st320{fill:#8D172A;}
	.st321{fill:#8F1829;}
	.st322{fill:#8E1729;}
	.st323{fill:#8F172A;}
	.st324{fill:#8E1728;}
	.st325{fill:#8D1729;}
	.st326{fill:#2C57BD;}
	.st327{fill:#305BC0;}
	.st328{fill:#2F5ABA;}
	.st329{fill:#2F5ABB;}
	.st330{fill:#2D58B9;}
	.st331{fill:#315CBE;}
	.st332{fill:#2D59BC;}
	.st333{fill:#1C513A;}
	.st334{fill:#B1BBC8;}
	.st335{fill:#B2BBC7;}
	.st336{fill:#B1BBC7;}
	.st337{fill:#19232E;}
	.st338{fill:#1F242E;}
	.st339{fill:#1F232C;}
	.st340{fill:#ACB6C1;}
	.st341{fill:#B1BAC6;}
	.st342{fill:#F2F2F2;}
	.st343{fill:#281F34;}
	.st344{fill:#20252E;}
	.st345{fill:#2B2038;}
	.st346{fill:#2E754D;}
	.st347{fill:#162534;}
	.st348{fill:#182834;}
	.st349{fill:#2D754D;}
	.st350{fill:#2E744C;}
	.st351{fill:#2A6547;}
	.st352{fill:#1C523A;}
	.st353{fill:#282137;}
	.st354{fill:#E2E6EA;}
	.st355{fill:#E0E5E8;}
	.st356{fill:#DCE0E3;}
	.st357{fill:#F586A6;}
	.st358{fill:#1C5139;}
	.st359{fill:#737233;}
	.st360{fill:#737234;}
	.st361{fill:#777636;}
	.st362{fill:#727234;}
	.st363{fill:#757335;}
	.st364{fill:#272328;}
	.st365{fill:#2D6E4B;}
	.st366{fill:#5D623F;}
	.st367{fill:#9195A0;}
	.st368{fill:#767435;}
	.st369{fill:#767436;}
	.st370{fill:#757433;}
	.st371{fill:#757336;}
	.st372{fill:#767635;}
	.st373{fill:#737334;}
	.st374{fill:#787737;}
	.st375{fill:#62663F;}
	.st376{fill:#787733;}
	.st377{fill:#AFB9C6;}
	.st378{fill:#767733;}
	.st379{fill:#757633;}
	.st380{fill:#737432;}
	.st381{fill:#767633;}
	.st382{fill:#757632;}
	.st383{fill:#757631;}
	.st384{fill:#A9B2BF;}
	.st385{fill:#646743;}
	.st386{fill:#B0BBC7;}
	.st387{fill:#F587A6;}
	.st388{fill:#F585A5;}
	.st389{fill:#EF688C;}
	.st390{fill:#2D704A;}
	.st391{fill:#F487A6;}
	.st392{fill:#737433;}
	.st393{fill:#747532;}
	.st394{fill:#727432;}
	.st395{fill:#767735;}
	.st396{fill:#666C43;}
	.st397{fill:#F586A7;}
	.st398{fill:#EE6B8B;}
	.st399{fill:#37213B;}
	.st400{fill:#1C5239;}
	.st401{fill:#2C6848;}
	.st402{fill:#558AC6;}
	.st403{fill:#1D533A;}
	.st404{fill:#2E744E;}
	.st405{fill:#2B7248;}
	.st406{fill:#2A6446;}
	.st407{fill:#296D49;}
	.st408{fill:#8F939F;}
	.st409{fill:#538AC6;}
	.st410{fill:#1A5037;}
	.st411{fill:#30774D;}
	.st412{fill:#2B724B;}
	.st413{fill:#2B6948;}
	.st414{fill:#2C6E4A;}
	.st415{fill:#F485A6;}
	.st416{fill:#EF6A8B;}
	.st417{fill:#F9B91A;}
	.st418{fill:#1F2432;}
	.st419{fill:#202534;}
	.st420{fill:#2D2B2D;}
	.st421{fill:#F6B115;}
	.st422{fill:#F9B417;}
	.st423{fill:#568BC5;}
	.st424{fill:#382816;}
	.st425{fill:#68462E;}
	.st426{fill:#FFD9D7;}
	.st427{fill:#F7BFBF;}
	.st428{fill:#FC9DA9;}
	.st429{fill:#A5CC6D;}
	.st430{fill:#F5ECD0;}
	.st431{fill:#5EB73D;}
	.st432{fill:#E085E0;}
	.st433{fill:#B56DB5;}
	.st434{fill:#BF5FC4;}
	.st435{fill:#E4CCE3;}
	.st436{fill:#DBA4AC;}
	.st437{fill:#F2E4D5;}
	.st438{fill:#266A37;}
	.st439{fill:#E98124;}
	.st440{fill:#E98224;}
	.st441{fill:#72AD48;}
	.st442{fill:#F5F4F4;}
	.st443{fill:#F8F7F6;}
	.st444{fill:#F7F7F7;}
	.st445{fill:#F6F6F5;}
	.st446{fill:#F5F5F4;}
	.st447{fill:#F7F6F5;}
	.st448{fill:#F4F4F2;}
	.st449{fill:#EA8424;}
	.st450{fill:#F9F8F7;}
	.st451{fill:#2B6A37;}
	.st452{fill:#2A6836;}
	.st453{fill:#306C38;}
	.st454{fill:#686765;}
	.st455{fill:#696966;}
	.st456{fill:#6C6C69;}
	.st457{fill:#6A6A69;}
	.st458{fill:#6A6867;}
	.st459{fill:#706F6D;}
	.st460{fill:#696867;}
	.st461{fill:#6C6C6B;}
	.st462{fill:#6E6C6C;}
	.st463{fill:#6B6A68;}
	.st464{fill:#6E6E6C;}
	.st465{fill:#71706E;}
	.st466{fill:#6D6D6B;}
	.st467{fill:#579843;}
	.st468{fill:#73B34A;}
	.st469{fill:#589843;}
	.st470{fill:#579742;}
	.st471{fill:#75B24B;}
	.st472{fill:#73B24B;}
	.st473{fill:#75B34D;}
	.st474{fill:#77B24D;}
	.st475{fill:#75B14B;}
	.st476{fill:#74B14C;}
	.st477{fill:#70B148;}
	.st478{fill:#75B14C;}
	.st479{fill:#549643;}
	.st480{fill:#579643;}
	.st481{fill:#79B44D;}
	.st482{fill:#75B24A;}
	.st483{fill:#F3B919;}
	.st484{fill:#6FAB49;}
	.st485{fill:#6FAE48;}
	.st486{fill:#73AF4A;}
	.st487{fill:#70AB4A;}
	.st488{fill:#71AD4B;}
	.st489{fill:#72B04B;}
	.st490{fill:#FABB14;}
	.st491{fill:#FABB13;}
	.st492{fill:#FABC13;}
	.st493{fill:#F9BC14;}
	.st494{fill:#F9AA19;}
	.st495{fill:#F7A91A;}
	.st496{fill:#F7A81A;}
	.st497{fill:#F7AA1A;}
	.st498{fill:#F9BA15;}
	.st499{fill:#F8AA19;}
	.st500{fill:#F8A81A;}
	.st501{fill:#F8A91A;}
	.st502{fill:#F6A71B;}
	.st503{fill:#F7AB1A;}
	.st504{fill:#F7A81B;}
	.st505{fill:#F9BD14;}
	.st506{fill:#F9BD13;}
	.st507{fill:#F8BC15;}
	.st508{fill:#F8BA16;}
	.st509{fill:#F9AB19;}
	.st510{fill:#F8AC19;}
	.st511{fill:#F9AC19;}
	.st512{fill:#F6AA1B;}
	.st513{fill:#F8BB15;}
	.st514{fill:#F7AD1A;}
	.st515{fill:#D6D6D6;}
	.st516{fill:#71AD4A;}
	.st517{fill:#666862;}
	.st518{fill:#1D4226;}
	.st519{fill:#214022;}
	.st520{fill:#84AB7B;}
	.st521{fill:#83AA7B;}
	.st522{fill:#FD651A;}
	.st523{fill:#68945F;}
	.st524{fill:#EE8B03;}
	.st525{fill:#67935F;}
	.st526{fill:#EFA516;}
	.st527{fill:#F8580E;}
	.st528{fill:#FD6418;}
	.st529{fill:#EB8B05;}
	.st530{fill:#EC8C05;}
	.st531{fill:#679460;}
	.st532{fill:#669460;}
	.st533{fill:#78A06D;}
	.st534{fill:#7BA270;}
	.st535{fill:#7CA271;}
	.st536{fill:#83AA7A;}
	.st537{fill:#82AB7A;}
	.st538{fill:#7DA370;}
	.st539{fill:#EA8905;}
	.st540{fill:#7AA46F;}
	.st541{fill:#F35A12;}
	.st542{fill:#7CA26E;}
	.st543{fill:#69945E;}
	.st544{fill:#F2580F;}
	.st545{fill:#E9E1CE;}
	.st546{fill:#6C9660;}
	.st547{fill:#F36315;}
	.st548{fill:#E99E18;}
	.st549{fill:#67915E;}
	.st550{fill:#67905E;}
	.st551{fill:#E3DBC7;}
	.st552{fill:#E09D1C;}
	.st553{fill:#6D9563;}
	.st554{fill:#658F5B;}
	.st555{fill:#61885A;}
	.st556{fill:#6C9662;}
	.st557{fill:#5F8456;}
	.st558{fill:#6C9465;}
	.st559{fill:#6C9666;}
	.st560{fill:#5E855A;}
	.st561{fill:#ECA318;}
	.st562{fill:#FB6218;}
	.st563{fill:#FD6318;}
	.st564{fill:#EFA416;}
	.st565{fill:#ED8B03;}
	.st566{fill:#FD6419;}
	.st567{fill:#F8570A;}
	.st568{fill:#F8560A;}
	.st569{fill:#EEA417;}
	.st570{fill:#EDA417;}
	.st571{fill:#709866;}
	.st572{fill:#EE8D04;}
	.st573{fill:#ED8A03;}
	.st574{fill:#ED8B05;}
	.st575{fill:#779D6A;}
	.st576{fill:#749967;}
	.st577{fill:#739868;}
	.st578{fill:#32302A;}
	.st579{fill:#303029;}
	.st580{fill:#343128;}
	.st581{fill:#2F322B;}
	.st582{fill:#2B312C;}
	.st583{fill:#2F322A;}
	.st584{fill:#38302A;}
	.st585{fill:#34312A;}
	.st586{fill:#38302D;}
	.st587{fill:#35342F;}
	.st588{fill:#353530;}
	.st589{fill:#E84E4D;}
	.st590{fill:#E84F4D;}
	.st591{fill:#E8504D;}
	.st592{fill:#E74A48;}
	.st593{fill:#E8504C;}
	.st594{fill:#518C53;}
	.st595{fill:#E54747;}
	.st596{fill:#E64C4A;}
	.st597{fill:#E34848;}
	.st598{fill:#579057;}
	.st599{fill:#588E55;}
	.st600{fill:#548650;}
	.st601{fill:#578350;}
	.st602{fill:#F6CA34;}
	.st603{fill:#F4E6C0;}
	.st604{fill:#F3E6BF;}
	.st605{fill:#F3E5BF;}
	.st606{fill:#F4E7C1;}
	.st607{fill:#F4E8C2;}
	.st608{fill:#F3E6C1;}
	.st609{fill:#F3E5BD;}
	.st610{fill:#F4E7C0;}
	.st611{fill:#F5C628;}
	.st612{fill:#F6EABE;}
	.st613{fill:#F6E9BC;}
	.st614{fill:#F5C526;}
	.st615{fill:#F5C62A;}
	.st616{fill:#F4C629;}
	.st617{fill:#F2E9C1;}
	.st618{fill:#F3E9BD;}
	.st619{fill:#F2E8BF;}
	.st620{fill:#F1E5B5;}
	.st621{fill:#EDC130;}
	.st622{fill:#EBC336;}
	.st623{fill:#E4BA2D;}
	.st624{fill:#EFC434;}
	.st625{fill:#EC4C4C;}
	.st626{fill:#ED504E;}
	.st627{fill:#518F56;}
	.st628{fill:#EE4F4D;}
	.st629{fill:#518D57;}
	.st630{fill:#508E57;}
	.st631{fill:#EC4E4D;}
	.st632{fill:#EB4E4D;}
	.st633{fill:#EC4B4C;}
	.st634{fill:#518C55;}
	.st635{fill:#528A53;}
	.st636{fill:#558F57;}
	.st637{fill:#E24345;}
	.st638{fill:#E24546;}
	.st639{fill:#E34448;}
	.st640{fill:#518F59;}
	.st641{fill:#54905B;}
	.st642{fill:#518F58;}
	.st643{fill:#538F59;}
	.st644{fill:#518E58;}
	.st645{fill:#518E59;}
	.st646{fill:#52905B;}
	.st647{fill:#518C58;}
	.st648{fill:#538F58;}
	.st649{fill:#F5C936;}
	.st650{fill:#F6C934;}
	.st651{fill:#F5C935;}
	.st652{fill:#F5C734;}
	.st653{fill:#F6C834;}
	.st654{fill:#548E59;}
	.st655{fill:#548F59;}
	.st656{fill:#548D58;}
	.st657{fill:#559059;}
	.st658{fill:#EA4D49;}
	.st659{fill:#EA4A48;}
	.st660{fill:#E94C49;}
	.st661{fill:#F6C932;}
	.st662{fill:#F6CA32;}
	.st663{fill:#F4C833;}
	.st664{fill:#EC4C4B;}
	.st665{fill:#518D56;}
	.st666{fill:#518E57;}
	.st667{fill:#EC4E4C;}
	.st668{fill:#4E8A52;}
	.st669{fill:#EA4A49;}
	.st670{fill:#F3E6BE;}
	.st671{fill:#F3E7BF;}
	.st672{fill:#44342D;}
	.st673{fill:#3C2D29;}
	.st674{fill:#3D2D29;}
	.st675{fill:#41312B;}
	.st676{fill:#44332E;}
	.st677{fill:#3C2F2A;}
	.st678{fill:#44322E;}
	.st679{fill:#45332D;}
	.st680{fill:#383427;}
	.st681{fill:#3A3628;}
	.st682{fill:#3B3729;}
	.st683{fill:#3B3629;}
	.st684{fill:#3A372A;}
	.st685{fill:#40342E;}
	.st686{fill:#3F3630;}
	.st687{fill:#3E342F;}
	.st688{fill:#E6DFBB;}
	.st689{fill:#DED8AD;}
	.st690{fill:#E1DABC;}
	.st691{fill:#E9E0B7;}
	.st692{fill:#EBE4C5;}
	.st693{fill:#E8E3BE;}
	.st694{fill:#D7D5C2;}
	.st695{fill:#D5D5BC;}
	.st696{fill:#F2E6B8;}
	.st697{fill:#F1C128;}
	.st698{fill:#F3C527;}
	.st699{fill:#F0C42C;}
	.st700{fill:#F1C227;}
	.st701{fill:#F2E7BE;}
	.st702{fill:#E74F4D;}
	.st703{fill:#E64A48;}
	.st704{fill:#10193F;}
	.st705{fill:#101941;}
	.st706{fill:#111940;}
	.st707{fill:#111840;}
	.st708{fill:#101940;}
	.st709{fill:#10183F;}
	.st710{fill:#2D61C8;}
	.st711{fill:#F93E97;}
	.st712{fill:#FA3E98;}
	.st713{fill:#359A5C;}
	.st714{fill:#349B5D;}
	.st715{fill:#359C5E;}
	.st716{fill:#349C5D;}
	.st717{fill:#F94097;}
	.st718{fill:#FA3F96;}
	.st719{fill:#329D5C;}
	.st720{fill:#339B5A;}
	.st721{fill:#AD62BF;}
	.st722{fill:#2E62CB;}
	.st723{fill:#2E61CA;}
	.st724{fill:#AA5EBD;}
	.st725{fill:#A85EBC;}
	.st726{fill:#FA4097;}
	.st727{fill:#339D5B;}
	.st728{fill:#339C5B;}
	.st729{fill:#F83D96;}
	.st730{fill:#F0E7E2;}
	.st731{fill:#EFE2DF;}
	.st732{fill:#F0E8E3;}
	.st733{fill:#F0E4DF;}
	.st734{fill:#F3ECE6;}
	.st735{fill:#EFE1DB;}
	.st736{fill:#EEE2DA;}
	.st737{fill:#EFE5DF;}
	.st738{fill:#EFE7DE;}
	.st739{fill:#EBE0D9;}
	.st740{fill:#F0E8E1;}
	.st741{fill:#EDE5DA;}
	.st742{fill:#121A43;}
	.st743{fill:#131B40;}
	.st744{fill:#121941;}
	.st745{fill:#131943;}
	.st746{fill:#111943;}
	.st747{fill:#EBEAE0;}
	.st748{fill:#E9EADF;}
	.st749{fill:#E8E7DE;}
	.st750{fill:#EAE8DE;}
	.st751{fill:#EEEDE4;}
	.st752{fill:#EDECE2;}
	.st753{fill:#E8E8E0;}
	.st754{fill:#E9E8E1;}
	.st755{fill:#EAE8DB;}
	.st756{fill:#E9E6DA;}
	.st757{fill:#EEEEE6;}
	.st758{fill:#EAE9DF;}
	.st759{fill:#EFEEE2;}
	.st760{fill:#F1F0E5;}
	.st761{fill:#EDECE1;}
	.st762{fill:#EFF0E6;}
	.st763{fill:#EAE8DC;}
	.st764{fill:#E7E7DA;}
	.st765{fill:#EFEEE3;}
	.st766{fill:#EFEDE0;}
	.st767{fill:#F0EEE0;}
	.st768{fill:#141843;}
	.st769{fill:#171948;}
	.st770{fill:#161C4A;}
	.st771{fill:#161A4A;}
	.st772{fill:#141A44;}
	.st773{fill:#171A48;}
	.st774{fill:#131846;}
	.st775{fill:#0F193D;}
	.st776{fill:#EEEEDA;}
	.st777{fill:#EEEDD9;}
	.st778{fill:#EDECDC;}
	.st779{fill:#EFEFDC;}
	.st780{fill:#EDEBDC;}
	.st781{fill:#EEEBDD;}
	.st782{fill:#EFEDDF;}
	.st783{fill:#0F1944;}
	.st784{fill:#3061C6;}
	.st785{fill:#EE7014;}
	.st786{fill:#A861BC;}
	.st787{fill:#AC66BF;}
	.st788{fill:#A861BD;}
	.st789{fill:#AB63C2;}
	.st790{fill:#A95FC3;}
	.st791{fill:#A85FBF;}
	.st792{fill:#FC3C9C;}
	.st793{fill:#439963;}
	.st794{fill:#409E64;}
	.st795{fill:#4E9D65;}
	.st796{fill:#479A66;}
	.st797{fill:#4A9A5F;}
	.st798{fill:#459C5E;}
	.st799{fill:#79AB81;}
	.st800{fill:#2E61C6;}
	.st801{fill:#2D60C4;}
	.st802{fill:#2D5FC2;}
	.st803{fill:#0F173F;}
	.st804{fill:#0F1A44;}
	.st805{fill:#101A45;}
	.st806{fill:#121842;}
	.st807{fill:#161740;}
	.st808{fill:#161640;}
	.st809{fill:#151842;}
	.st810{fill:#161842;}
	.st811{fill:#F9EFDA;}
	.st812{fill:#3D895B;}
	.st813{fill:#286342;}
	.st814{fill:#ADA060;}
	.st815{fill:#7B9379;}
	.st816{fill:#314B3E;}
	.st817{fill:#304B3D;}
	.st818{fill:#3A393E;}
	.st819{fill:#C66532;}
	.st820{fill:#C66634;}
	.st821{fill:#C56533;}
	.st822{fill:#314A3D;}
	.st823{fill:#314B3D;}
	.st824{fill:#39383E;}
	.st825{fill:#CE9939;}
	.st826{fill:#CD9838;}
	.st827{fill:#6F6A45;}
	.st828{fill:#3A383E;}
	.st829{fill:#3B393F;}
	.st830{fill:#9AB08D;}
	.st831{fill:#7C9379;}
	.st832{fill:#99AE8C;}
	.st833{fill:#CC9939;}
	.st834{fill:#E8D4BC;}
	.st835{fill:#F26B55;}
	.st836{fill:#DEC8A4;}
	.st837{fill:#E0CBA5;}
	.st838{fill:#E0CBA7;}
	.st839{fill:#E2CCA9;}
	.st840{fill:#E2CBA8;}
	.st841{fill:#DEC8A6;}
	.st842{fill:#DFCBA6;}
	.st843{fill:#E1CCAA;}
	.st844{fill:#DEC9A4;}
	.st845{fill:#E2CBA6;}
	.st846{fill:#DFC9A4;}
	.st847{fill:#E0CCA9;}
	.st848{fill:#E1CCA8;}
	.st849{fill:#E0CAA7;}
	.st850{fill:#DDC8A3;}
	.st851{fill:#E1CAA6;}
	.st852{fill:#E0CAA6;}
	.st853{fill:#E2CDAA;}
	.st854{fill:#E0C9A6;}
	.st855{fill:#E1CBA5;}
	.st856{fill:#DDC6A2;}
	.st857{fill:#E3CEAC;}
	.st858{fill:#E4CEAA;}
	.st859{fill:#E1CCA7;}
	.st860{fill:#DFC9A6;}
	.st861{fill:#E1CDA7;}
	.st862{fill:#E1CAA5;}
	.st863{fill:#E0CCAA;}
	.st864{fill:#E2CCAA;}
	.st865{fill:#E0C9A5;}
	.st866{fill:#E2CCA7;}
	.st867{fill:#E3CBA7;}
	.st868{fill:#E2CCA6;}
	.st869{fill:#DFCAA3;}
	.st870{fill:#DFCAA6;}
	.st871{fill:#E2CDAC;}
	.st872{fill:#DFCAA7;}
	.st873{fill:#99AF8C;}
	.st874{fill:#423836;}
	.st875{fill:#F8F0DA;}
	.st876{fill:#C46532;}
	.st877{fill:#E0CBA8;}
	.st878{fill:#DECAA8;}
	.st879{fill:#E1CBA8;}
	.st880{fill:#DDC9A4;}
	.st881{fill:#E1CCA9;}
	.st882{fill:#E0C9A4;}
	.st883{fill:#DFCBA7;}
	.st884{fill:#E0C9A8;}
	.st885{fill:#DCC8A6;}
	.st886{fill:#E1CBA7;}
	.st887{fill:#E3CDA8;}
	.st888{fill:#E1DFC9;}
	.st889{fill:#6C6844;}
	.st890{fill:#F5EED5;}
	.st891{fill:#F5EED4;}
	.st892{fill:#BF9138;}
	.st893{fill:#DECE98;}
	.st894{fill:#98AE8B;}
	.st895{fill:#344D3C;}
	.st896{fill:#F7F0D9;}
	.st897{fill:#C26431;}
	.st898{fill:#BF6634;}
	.st899{fill:#BD6534;}
	.st900{fill:#F4EED2;}
	.st901{fill:#ECE9CF;}
	.st902{fill:#483A35;}
	.st903{fill:#F1EBBE;}
	.st904{fill:#E3E6C9;}
	.st905{fill:#30493C;}
	.st906{fill:#DDC8A6;}
	.st907{fill:#E0C9A7;}
	.st908{fill:#DFCAA8;}
	.st909{fill:#C06533;}
	.st910{fill:#B16538;}
	.st911{fill:#D5CDB6;}
	.st912{fill:#888151;}
	.st913{fill:#304A3B;}
	.st914{fill:#F3EDD5;}
	.st915{fill:#D39A3B;}
	.st916{fill:#DFC9A7;}
	.st917{fill:#E0CAA8;}
	.st918{fill:#2F4B3C;}
	.st919{fill:#010102;}
	.st920{fill:#1A1612;}
	.st921{fill:#010101;}
	.st922{fill:#1F1B17;}
	.st923{fill:#211A13;}
	.st924{fill:#211A14;}
	.st925{fill:#2B2C2B;}
	.st926{fill:#CBCBC7;}
	.st927{fill:#E9E9DF;}
	.st928{fill:#E6E6DA;}
	.st929{fill:#CCCBC7;}
	.st930{fill:#CBCBC6;}
	.st931{fill:var(--green-color,#50D68C);}
	.st932{fill:#CACAC5;}
	.st933{fill:#EAE9DD;}
	.st934{fill:#E4E5DB;}
	.st935{fill:#C5C4C0;}
	.st936{fill:#C7C9C3;}
	.st937{fill:#CCCDC7;}
	.st938{fill:#332E2B;}
	.st939{fill:#3A3331;}
	.st940{fill:#25201D;}
	.st941{fill:#2C2824;}
	.st942{fill:#302421;}
	.st943{fill:#34312C;}
	.st944{fill:#524A47;}
	.st945{fill:#402825;}
	.st946{fill:#464139;}
	.st947{fill:#40423B;}
	.st948{fill:#2D201B;}
	.st949{fill:#F3F0EC;}
	.st950{fill:#8DA780;}
	.st951{fill:#E0CC8C;}
	.st952{fill:#2F5251;}
	.st953{fill:#364F3D;}
	.st954{fill:#AEBB9A;}
	.st955{fill:#8A8750;}
	.st956{fill:#898751;}
	.st957{fill:#8A8751;}
	.st958{fill:#898752;}
	.st959{fill:#8B8851;}
	.st960{fill:#8B8951;}
	.st961{fill:#8A8850;}
	.st962{fill:#8A8851;}
	.st963{fill:#898852;}
	.st964{fill:#8B8850;}
	.st965{fill:#8C8951;}
	.st966{fill:#8D8A54;}
	.st967{fill:#8D8A51;}
	.st968{fill:#AAB27A;}
	.st969{fill:#A9B178;}
	.st970{fill:#AAB279;}
	.st971{fill:#ABB27A;}
	.st972{fill:#8C8851;}
	.st973{fill:#ABB37A;}
	.st974{fill:#AAB179;}
	.st975{fill:#AAB37A;}
	.st976{fill:#AAB379;}
	.st977{fill:#ABB379;}
	.st978{fill:#AAB278;}
	.st979{fill:#ACB57B;}
	.st980{fill:#A9B277;}
	.st981{fill:#A09D5E;}
	.st982{fill:#A09B5A;}
	.st983{fill:#9E9958;}
	.st984{fill:#9F9C5B;}
	.st985{fill:#A19F60;}
	.st986{fill:#9F9B5B;}
	.st987{fill:#A29F60;}
	.st988{fill:#9B9756;}
	.st989{fill:#A7A263;}
	.st990{fill:#A6A061;}
	.st991{fill:#A29E5E;}
	.st992{fill:#A19D5C;}
	.st993{fill:#A39E5C;}
	.st994{fill:#A39E5D;}
	.st995{fill:#A29D5E;}
	.st996{fill:#A49D5E;}
	.st997{fill:#A29D60;}
	.st998{fill:#A19E5F;}
	.st999{fill:#A1A062;}
	.st1000{fill:#A29D5B;}
	.st1001{fill:#A19B5B;}
	.st1002{fill:#A5A060;}
	.st1003{fill:#A8A163;}
	.st1004{fill:#A4A265;}
	.st1005{fill:#A5A05E;}
	.st1006{fill:#A7A360;}
	.st1007{fill:#A49E61;}
	.st1008{fill:#A49F62;}
	.st1009{fill:#A49D60;}
	.st1010{fill:#A19C5C;}
	.st1011{fill:#9F9B59;}
	.st1012{fill:#A49F5D;}
	.st1013{fill:#A49C5A;}
	.st1014{fill:#A49E5F;}
	.st1015{fill:#A39E5F;}
	.st1016{fill:#A49E5E;}
	.st1017{fill:#A6A060;}
	.st1018{fill:#A59F60;}
	.st1019{fill:#A49C5C;}
	.st1020{fill:#A49D5F;}
	.st1021{fill:#A4A166;}
	.st1022{fill:#A7A265;}
	.st1023{fill:#476B61;}
	.st1024{fill:#91A681;}
	.st1025{fill:#90A480;}
	.st1026{fill:#90A381;}
	.st1027{fill:#8DA27E;}
	.st1028{fill:#90A580;}
	.st1029{fill:#8FA380;}
	.st1030{fill:#120D0B;}
	.st1031{fill:#0F0B0B;}
	.st1032{fill:#120E10;}
	.st1033{fill:#060606;}
	.st1034{fill:#070707;}
	.st1035{fill:#C5C3BD;}
	.st1036{fill:#A7A6A2;}
	.st1037{fill:#A6A5A1;}
	.st1038{fill:#A5A5A4;}
	.st1039{fill:#1C0F0E;}
	.st1040{fill:#1D150C;}
	.st1041{fill:#271A16;}
	.st1042{fill:#2A1A16;}
	.st1043{fill:#2C1D19;}
	.st1044{fill:#331F1A;}
	.st1045{fill:#433028;}
	.st1046{fill:#34221A;}
	.st1047{fill:#927B71;}
	.st1048{fill:#F3F2EE;}
	.st1049{fill:#1D211F;}
	.st1050{fill:#242220;}
	.st1051{fill:#C5C2BC;}
	.st1052{fill:#C6C3BD;}
	.st1053{fill:#3A4636;}
	.st1054{fill:#3E483A;}
	.st1055{fill:#394736;}
	.st1056{fill:#394536;}
	.st1057{fill:#DFDBCE;}
	.st1058{fill:#3A4538;}
	.st1059{fill:#DFDACF;}
	.st1060{fill:#3C4639;}
	.st1061{fill:#DAD5CA;}
	.st1062{fill:#DDDACD;}
	.st1063{fill:#DDD7CC;}
	.st1064{fill:#DFD9CB;}
	.st1065{fill:#E1DED3;}
	.st1066{fill:#21211F;}
	.st1067{fill:#DCD8CC;}
	.st1068{fill:#DED9CB;}
	.st1069{fill:#DADACE;}
	.st1070{fill:#374236;}
	.st1071{fill:#BBB8B0;}
	.st1072{fill:#5F7F66;}
	.st1073{fill:#8AA295;}
	.st1074{fill:#1F1C1C;}
	.st1075{fill:#1E1A1B;}
	.st1076{fill:#2E2C2B;}
	.st1077{fill:#242422;}
	.st1078{fill:#312626;}
	.st1079{fill:#38352F;}
	.st1080{fill:#24211F;}
	.st1081{fill:#D8D5C8;}
	.st1082{fill:#4062CB;}
	.st1083{fill:#F8D830;}
	.st1084{fill:#0D0E0F;}
	.st1085{fill:#DC8971;}
	.st1086{fill:#DC8A72;}
	.st1087{fill:#DE8A71;}
	.st1088{fill:#0D0E0E;}
	.st1089{fill:#101111;}
	.st1090{fill:#0E0F0F;}
	.st1091{fill:#DB8972;}
	.st1092{fill:#0E0F10;}
	.st1093{fill:#0E0F0E;}
	.st1094{fill:#DF886D;}
	.st1095{fill:#0E0E0E;}
	.st1096{fill:#0F0E0D;}
	.st1097{fill:#1C1913;}
	.st1098{fill:#F9F3EB;}
	.st1099{fill:#0D0E0D;}
	.st1100{fill:#F2E2CA;}
	.st1101{fill:#0C0D0E;}
	.st1102{fill:#F0E0C8;}
	.st1103{fill:#F1E1C9;}
	.st1104{fill:#0D0F0F;}
	.st1105{fill:#D5A834;}
	.st1106{fill:#281812;}
	.st1107{fill:#271611;}
	.st1108{fill:#39241D;}
	.st1109{fill:#381E17;}
	.st1110{fill:#73858B;}
	.st1111{fill:#4B1D1D;}
	.st1112{fill:#131415;}
	.st1113{fill:#D2D2D2;}
	.st1114{fill:#B7B7B6;}
	.st1115{fill:#FDFEFD;}
	.st1116{fill:#FEFEFD;}
	.st1117{fill:#FEFEFE;}
	.st1118{fill:#CBCCCC;}
	.st1119{fill:#CFD0CF;}
	.st1120{fill:#FBFCFB;}
	.st1121{fill:#D0D0CF;}
	.st1122{fill:#CCCDCC;}
	.st1123{fill:#E1DFDE;}
	.st1124{fill:#E9EBE6;}
	.st1125{fill:#CED8D5;}
	.st1126{fill:#CFD7D4;}
	.st1127{fill:#F0EFEE;}
	.st1128{fill:#DCDFDE;}
	.st1129{fill:#FDFDFD;}
	.st1130{fill:#FCFCFB;}
	.st1131{fill:#CECECE;}
	.st1132{fill:#6A2826;}
	.st1133{fill:#F7F8F6;}
	.st1134{fill:#F8F9F6;}
	.st1135{fill:#CFD0D0;}
	.st1136{fill:#EAEEED;}
	.st1137{fill:#E7E9E8;}
	.st1138{fill:#E8ECEC;}
	.st1139{fill:#D5DEDE;}
	.st1140{fill:#F9FAF9;}
	.st1141{fill:#ABBCBF;}
	.st1142{fill:#908F8B;}
	.st1143{fill:#60483E;}
	.st1144{fill:#4C2F2A;}
	.st1145{fill:#62483F;}
	.st1146{fill:#573929;}
	.st1147{fill:#443A2C;}
	.st1148{fill:#442F25;}
	.st1149{fill:#56413C;}
	.st1150{fill:#D0B797;}
	.st1151{fill:#FCBD9A;}
	.st1152{fill:#F5B796;}
	.st1153{fill:#C79A73;}
	.st1154{fill:#417249;}
	.st1155{fill:#FDC0A0;}
	.st1156{fill:#E9A35D;}
	.st1157{fill:#B58963;}
	.st1158{fill:#AA4F69;}
	.st1159{fill:#B68A63;}
	.st1160{fill:#81AF47;}
	.st1161{fill:#E64133;}
	.st1162{fill:#E64736;}
	.st1163{fill:#B88B64;}
	.st1164{fill:#B78B62;}
	.st1165{fill:#B78A62;}
	.st1166{fill:#DF3C2E;}
	.st1167{fill:#F4BA9A;}
	.st1168{fill:#F4B592;}
	.st1169{fill:#F4C0A1;}
	.st1170{fill:#4E7343;}
	.st1171{fill:#507243;}
	.st1172{fill:#F1B998;}
	.st1173{fill:#C0BFBB;}
	.st1174{fill:#42734A;}
	.st1175{fill:#407349;}
	.st1176{fill:#C3C0BB;}
	.st1177{fill:#A49D98;}
	.st1178{fill:#624940;}
	.st1179{fill:#83AF46;}
	.st1180{fill:#578B3A;}
	.st1181{fill:#63493F;}
	.st1182{fill:#A96F7B;}
	.st1183{fill:#476E43;}
	.st1184{fill:#C2C0BC;}
	.st1185{fill:#724636;}
	.st1186{fill:#6A4130;}
	.st1187{fill:#5C3C33;}
	.st1188{fill:#5F3B30;}
	.st1189{fill:#653E2C;}
	.st1190{fill:#683626;}
	.st1191{fill:#724728;}
	.st1192{fill:#724427;}
	.st1193{fill:#6D4325;}
	.st1194{fill:#E2A05E;}
	.st1195{fill:#E4A669;}
	.st1196{fill:#E2A565;}
	.st1197{fill:#7A8393;}
	.st1198{fill:#040404;}
	.st1199{fill:#55AF6C;}
	.st1200{fill:#583F2F;}
	.st1201{fill:#3B434F;}
	.st1202{fill:#92519B;}
	.st1203{fill:#5A302E;}
	.st1204{fill:#3E472F;}
	.st1205{fill:#3D4F43;}
	.st1206{fill:#404652;}
	.st1207{fill:#5AAD68;}
	.st1208{fill:#413C45;}
	.st1209{fill:#514B4A;}
	.st1210{fill:#5B585A;}
	.st1211{fill:#424F43;}
	.st1212{fill:#3C3840;}
	.st1213{fill:#3A5041;}
	.st1214{fill:#385041;}
	.st1215{fill:#384E3F;}
	.st1216{fill:#575354;}
	.st1217{fill:#58A969;}
	.st1218{fill:#3C4D3F;}
	.st1219{fill:#1E2232;}
	.st1220{fill:#3B473B;}
	.st1221{fill:#3B4839;}
	.st1222{fill:#3F554B;}
	.st1223{fill:#32473C;}
	.st1224{fill:#434837;}
	.st1225{fill:#483A49;}
	.st1226{fill:#4A4F43;}
	.st1227{fill:#424E46;}
	.st1228{fill:#516C54;}
	.st1229{fill:#3B4F41;}
	.st1230{fill:#38493D;}
	.st1231{fill:#324A37;}
	.st1232{fill:#3A3C4C;}
	.st1233{fill:#FEFFFE;}
	.st1234{fill:#5597CF;}
	.st1235{fill:#5796CC;}
	.st1236{fill:#FD9817;}
	.st1237{fill:#274A31;}
	.st1238{fill:#394D5D;}
	.st1239{fill:#FBFCFC;}
	.st1240{fill:#F7F8F7;}
	.st1241{fill:#592826;}
	.st1242{fill:#505B5F;}
	.st1243{fill:#5191CA;}
	.st1244{fill:#4C3F39;}
	.st1245{fill:#364957;}
	.st1246{fill:#304653;}
	.st1247{fill:#D8DEDA;}
	.st1248{fill:#7CBF87;}
	.st1249{fill:#FE9819;}
	.st1250{fill:#73431D;}
	.st1251{fill:#513638;}
	.st1252{fill:#5695CD;}
	.st1253{fill:#F14A43;}
	.st1254{fill:#F4F6F3;}
	.st1255{fill:#5DAA6A;}
	.st1256{fill:#5FAA6E;}
	.st1257{fill:#5694CB;}
	.st1258{fill:#F3F5F4;}
	.st1259{fill:#E8EBEC;}
	.st1260{fill:#ECF0EF;}
	.st1261{fill:#E1E7E7;}
	.st1262{fill:#91519B;}
	.st1263{fill:#5BA76E;}
	.st1264{fill:#6AB176;}
	.st1265{fill:#5696CB;}
	.st1266{fill:#3F414B;}
	.st1267{fill:#3D4E5B;}
	.st1268{fill:#354454;}
	.st1269{fill:#3A4654;}
	.st1270{fill:#394655;}
	.st1271{fill:#364859;}
	.st1272{fill:#4B424F;}
	.st1273{fill:#3A4555;}
	.st1274{fill:#42525F;}
	.st1275{fill:#3B4757;}
	.st1276{fill:#494557;}
	.st1277{fill:#404952;}
	.st1278{fill:#3C4652;}
	.st1279{fill:#433444;}
	.st1280{fill:#493C4E;}
	.st1281{fill:#3E4453;}
	.st1282{fill:#242131;}
	.st1283{fill:#3E4554;}
	.st1284{fill:#444255;}
	.st1285{fill:#49647C;}
	.st1286{fill:#484E5B;}
	.st1287{fill:#F34640;}
	.st1288{fill:#344B38;}
	.st1289{fill:#2E4433;}
	.st1290{fill:#304433;}
	.st1291{fill:#2E412F;}
	.st1292{fill:#304834;}
	.st1293{fill:#2E4731;}
	.st1294{fill:#5E605E;}
	.st1295{fill:#605F5D;}
	.st1296{fill:#585654;}
	.st1297{fill:#433D3C;}
	.st1298{fill:#4A3C3C;}
	.st1299{fill:#603C3B;}
	.st1300{fill:#595A5B;}
	.st1301{fill:#656769;}
	.st1302{fill:#4E4D4D;}
	.st1303{fill:#8E5517;}
	.st1304{fill:#844F11;}
	.st1305{fill:#7B4513;}
	.st1306{fill:#5D3008;}
	.st1307{fill:#F4F7F6;}
	.st1308{fill:#5896C6;}
	.st1309{fill:#5A98CD;}
	.st1310{fill:#528DC6;}
	.st1311{fill:#568EBB;}
	.st1312{fill:#5E98C3;}
	.st1313{fill:#000001;}
	.st1314{fill:#6E7881;}
	.st1315{fill:#161914;}
	.st1316{fill:#0F0D11;}
	.st1317{fill:#251616;}
	.st1318{fill:#251A15;}
	.st1319{fill:#221914;}
	.st1320{fill:#2C2017;}
	.st1321{fill:#EAA4A5;}
	.st1322{fill:#069866;}
	.st1323{fill:#FCC90B;}
	.st1324{fill:#F4C6AE;}
	.st1325{fill:#F4CAB3;}
	.st1326{fill:#F8CCB6;}
	.st1327{fill:#39383C;}
	.st1328{fill:#F9CBB4;}
	.st1329{fill:#FBCBB3;}
	.st1330{fill:#90C281;}
	.st1331{fill:#8DB783;}
	.st1332{fill:#8CBB7E;}
	.st1333{fill:#93C186;}
	.st1334{fill:#85AC7B;}
	.st1335{fill:#EF9095;}
	.st1336{fill:#F3F5F2;}
	.st1337{fill:#382F29;}
	.st1338{fill:#342622;}
	.st1339{fill:#31231E;}
	.st1340{fill:#322C25;}
	.st1341{fill:#302520;}
	.st1342{fill:#2E2420;}
	.st1343{fill:#312924;}
	.st1344{fill:#391B1A;}
	.st1345{fill:#261B18;}
	.st1346{fill:#85687B;}
	.st1347{fill:#1E2C51;}
	.st1348{fill:#2A3644;}
	.st1349{fill:#272B44;}
	.st1350{fill:#412836;}
	.st1351{fill:#222B50;}
	.st1352{fill:#4E4037;}
	.st1353{fill:#3F3A4D;}
	.st1354{fill:#4B4456;}
	.st1355{fill:#463B4C;}
	.st1356{fill:#2E2A3F;}
	.st1357{fill:#443745;}
	.st1358{fill:#503C48;}
	.st1359{fill:#352E45;}
	.st1360{fill:#92AD91;}
	.st1361{fill:#90AA8E;}
	.st1362{fill:#91AD90;}
	.st1363{fill:#64996A;}
	.st1364{fill:#FAC332;}
	.st1365{fill:#7AB2DF;}
	.st1366{fill:#93C082;}
	.st1367{fill:#93C081;}
	.st1368{fill:#90AC91;}
	.st1369{fill:#EFCFA7;}
	.st1370{fill:#65996B;}
	.st1371{fill:#64986B;}
	.st1372{fill:#94C082;}
	.st1373{fill:#859C82;}
	.st1374{fill:#6C4840;}
	.st1375{fill:#6A4640;}
	.st1376{fill:#E8D0AC;}
	.st1377{fill:#6B9A72;}
	.st1378{fill:#679973;}
	.st1379{fill:#6D9B72;}
	.st1380{fill:#679773;}
	.st1381{fill:#9FB7BD;}
	.st1382{fill:#96A6A9;}
	.st1383{fill:#CB6540;}
	.st1384{fill:#C96340;}
	.st1385{fill:#6D483F;}
	.st1386{fill:#91AC90;}
	.st1387{fill:#6B473E;}
	.st1388{fill:#6A4A43;}
	.st1389{fill:#AE4C30;}
	.st1390{fill:#FAEBD0;}
	.st1391{fill:#8D8854;}
	.st1392{fill:#F1B095;}
	.st1393{fill:#F1B197;}
	.st1394{fill:#EDAF9A;}
	.st1395{fill:#2E6A6B;}
	.st1396{fill:#612838;}
	.st1397{fill:#85824E;}
	.st1398{fill:#8E8854;}
	.st1399{fill:#8D8852;}
	.st1400{fill:#222D51;}
	.st1401{fill:#283549;}
	.st1402{fill:#76534B;}
	.st1403{fill:#24284C;}
	.st1404{fill:#629869;}
	.st1405{fill:#FBD0B2;}
	.st1406{fill:#F5D0B4;}
	.st1407{fill:#679F6E;}
	.st1408{fill:#92BE83;}
	.st1409{fill:#30253E;}
	.st1410{fill:#111A11;}
	.st1411{fill:#0E0F17;}
	.st1412{fill:#1B1112;}
	.st1413{fill:#191415;}
	.st1414{fill:#250E0A;}
	.st1415{fill:#28192D;}
	.st1416{fill:#97CE8A;}
	.st1417{fill:#C2562D;}
	.st1418{fill:#96CE88;}
	.st1419{fill:#D2474B;}
	.st1420{fill:#98D07D;}
	.st1421{fill:#B4D87A;}
	.st1422{fill:#6AAE63;}
	.st1423{fill:#41914C;}
	.st1424{fill:#96CD88;}
	.st1425{fill:#79B158;}
	.st1426{fill:#7AB059;}
	.st1427{fill:#71AB5E;}
	.st1428{fill:#D3E9AE;}
	.st1429{fill:#B545A9;}
	.st1430{fill:#43924F;}
	.st1431{fill:#90CA7A;}
	.st1432{fill:#77AF59;}
	.st1433{fill:#98CD84;}
	.st1434{fill:#9ACE86;}
	.st1435{fill:#7AB05B;}
	.st1436{fill:#9DCD89;}
	.st1437{fill:#72A959;}
	.st1438{fill:#26172A;}
	.st1439{fill:#8AB957;}
	.st1440{fill:#E4AEE3;}
	.st1441{fill:#A3D28E;}
	.st1442{fill:#406B23;}
	.st1443{fill:#6FA359;}
	.st1444{fill:#4F8351;}
	.st1445{fill:#252B44;}
	.st1446{fill:#FDFDFC;}
	.st1447{fill:#ECEEED;}
	.st1448{fill:#F4F5F3;}
	.st1449{fill:#F9B496;}
	.st1450{fill:#F7B698;}
	.st1451{fill:#FABA9B;}
	.st1452{fill:#462525;}
	.st1453{fill:#62AD62;}
	.st1454{fill:#854937;}
	.st1455{fill:#EA977A;}
	.st1456{fill:#FACD34;}
	.st1457{fill:#FACC33;}
	.st1458{fill:#3F2120;}
	.st1459{fill:#402122;}
	.st1460{fill:#F7CB3B;}
	.st1461{fill:#A94120;}
	.st1462{fill:#131816;}
	.st1463{fill:#171E17;}
	.st1464{fill:#151A17;}
	.st1465{fill:#FABA9D;}
	.st1466{fill:#44251E;}
	.st1467{fill:#361B18;}
	.st1468{fill:#2D1D1A;}
	.st1469{fill:#3A2B26;}
	.st1470{fill:#3C221B;}
	.st1471{fill:#463315;}
	.st1472{fill:#C8D892;}
	.st1473{fill:#A6D78F;}
	.st1474{fill:#B5B5B5;}
	.st1475{fill:#010202;}
	.st1476{fill:#503928;}
	.st1477{fill:#564245;}
	.st1478{fill:#35394B;}
	.st1479{fill:#2A315E;}
	.st1480{fill:#5F464B;}
	.st1481{fill:#403439;}
	.st1482{fill:#532C45;}
	.st1483{fill:#572C43;}
	.st1484{fill:#453540;}
	.st1485{fill:#EAEAEA;}
	.st1486{fill:#50A25C;}
	.st1487{fill:#82C05D;}
	.st1488{fill:#51A35D;}
	.st1489{fill:#367D39;}
	.st1490{fill:#FDFEFC;}
	.st1491{fill:#519F5A;}
	.st1492{fill:#83C15E;}
	.st1493{fill:#377D39;}
	.st1494{fill:#F9CC1B;}
	.st1495{fill:#81BD5B;}
	.st1496{fill:#4D3828;}
	.st1497{fill:#377D3A;}
	.st1498{fill:#F3B31A;}
	.st1499{fill:#D1D1D1;}
	.st1500{fill:#83BD5D;}
	.st1501{fill:#31386B;}
	.st1502{fill:#F9CB1A;}
	.st1503{fill:#FACC1A;}
	.st1504{fill:#FACB1B;}
	.st1505{fill:#F9CB1B;}
	.st1506{fill:#FACC1C;}
	.st1507{fill:#FACC1B;}
	.st1508{fill:#F3B41A;}
	.st1509{fill:#F4B41C;}
	.st1510{fill:#F4B41D;}
	.st1511{fill:#F4B41F;}
	.st1512{fill:#F4B61A;}
	.st1513{fill:#F5B51F;}
	.st1514{fill:#F4B61B;}
	.st1515{fill:#292C2C;}
	.st1516{fill:#59ACDE;}
	.st1517{fill:#F1B219;}
	.st1518{fill:#F2B31A;}
	.st1519{fill:#513D25;}
	.st1520{fill:#E24E51;}
	.st1521{fill:#E25252;}
	.st1522{fill:#E14F51;}
	.st1523{fill:#E04F51;}
	.st1524{fill:#303B3C;}
	.st1525{fill:#F9CA1A;}
	.st1526{fill:#F9CC1C;}
	.st1527{fill:#F2B21B;}
	.st1528{fill:#F2B21D;}
	.st1529{fill:#112046;}
	.st1530{fill:#101F45;}
	.st1531{fill:#111F45;}
	.st1532{fill:#102046;}
	.st1533{fill:#12214A;}
	.st1534{fill:#102049;}
	.st1535{fill:#0F1E44;}
	.st1536{fill:#112147;}
	.st1537{fill:#101F43;}
	.st1538{fill:#112048;}
	.st1539{fill:#30386C;}
	.st1540{fill:#32386D;}
	.st1541{fill:#36396F;}
	.st1542{fill:#36396E;}
	.st1543{fill:#069A66;}
	.st1544{fill:#FEB394;}
	.st1545{fill:#FCB295;}
	.st1546{fill:#125941;}
	.st1547{fill:#047753;}
	.st1548{fill:#047552;}
	.st1549{fill:#067753;}
	.st1550{fill:#057653;}
	.st1551{fill:#E38364;}
	.st1552{fill:#F98E2D;}
	.st1553{fill:#82B93A;}
	.st1554{fill:#8C4230;}
	.st1555{fill:#FABB5C;}
	.st1556{fill:#E28364;}
	.st1557{fill:#FBBA5E;}
	.st1558{fill:#8B4130;}
	.st1559{fill:#8B412F;}
	.st1560{fill:#E9413B;}
	.st1561{fill:#4E8D1B;}
	.st1562{fill:#E9413C;}
	.st1563{fill:#FABA5B;}
	.st1564{fill:#4E891A;}
	.st1565{fill:#EB4B42;}
	.st1566{fill:#EE4C44;}
	.st1567{fill:#D77A21;}
	.st1568{fill:#D4771F;}
	.st1569{fill:#E74D44;}
	.st1570{fill:#EE8E2A;}
	.st1571{fill:#FDB396;}
	.st1572{fill:#D67721;}
	.st1573{fill:#D7761C;}
	.st1574{fill:#F9B393;}
	.st1575{fill:#FAB393;}
	.st1576{fill:#672C24;}
	.st1577{fill:#FDB395;}
	.st1578{fill:#E58466;}
	.st1579{fill:#FCB697;}
	.st1580{fill:#FCB594;}
	.st1581{fill:#E58467;}
	.st1582{fill:#E58265;}
	.st1583{fill:#FBE46A;}
	.st1584{fill:#FCE46B;}
	.st1585{fill:#FAD67B;}
	.st1586{fill:#FBD57D;}
	.st1587{fill:#FAD67E;}
	.st1588{fill:#F9D67D;}
	.st1589{fill:#FBD883;}
	.st1590{fill:#F9D882;}
	.st1591{fill:#FBD77F;}
	.st1592{fill:#FAD77F;}
	.st1593{fill:#F9D47B;}
	.st1594{fill:#FAD478;}
	.st1595{fill:#F8D277;}
	.st1596{fill:#FAD87F;}
	.st1597{fill:#E68467;}
	.st1598{fill:#8F463A;}
	.st1599{fill:#90473A;}
	.st1600{fill:#8F4739;}
	.st1601{fill:#F4605E;}
	.st1602{fill:#100E13;}
	.st1603{fill:#15100F;}
	.st1604{fill:#1A1312;}
	.st1605{fill:#070708;}
	.st1606{fill:#160E0C;}
	.st1607{fill:#160C0A;}
	.st1608{fill:#141210;}
	.st1609{fill:#19100D;}
	.st1610{fill:#020202;}
	.st1611{fill:#0B0807;}
	.st1612{fill:#121210;}
	.st1613{fill:#131210;}
	.st1614{fill:#020304;}
	.st1615{fill:#030303;}
	.st1616{fill:#050404;}
	.st1617{fill:#030405;}
	.st1618{fill:#EBEBE7;}
	.st1619{fill:#E8EBE8;}
	.st1620{fill:#A2AA9F;}
	.st1621{fill:#C1C1BF;}
	.st1622{fill:#C0C1BF;}
	.st1623{fill:#9F9F9A;}
	.st1624{fill:#A7A59F;}
	.st1625{fill:#FDFDFB;}
	.st1626{fill:#0B0D1F;}
	.st1627{fill:#231816;}
	.st1628{fill:#261916;}
	.st1629{fill:#31211B;}
	.st1630{fill:#261815;}
	.st1631{fill:#1F1411;}
	.st1632{fill:#211310;}
	.st1633{fill:#180E0B;}
	.st1634{fill:#1F140D;}
	.st1635{fill:#1D120C;}
	.st1636{fill:#100A08;}
	.st1637{fill:#0C0604;}
	.st1638{fill:#171921;}
	.st1639{fill:#1B1E25;}
	.st1640{fill:#111B1D;}
	.st1641{fill:#16181D;}
	.st1642{fill:#121B1E;}
	.st1643{fill:#1B130F;}
	.st1644{fill:#131313;}
	.st1645{fill:#191514;}
	.st1646{fill:#15100E;}
	.st1647{fill:#140E0C;}
	.st1648{fill:#1F1713;}
	.st1649{fill:#EBECE6;}
	.st1650{fill:#F3F3F0;}
	.st1651{fill:#EEEEE9;}
	.st1652{fill:#C1C1C1;}
	.st1653{fill:#BEC0BD;}
	.st1654{fill:#B9C1C1;}
	.st1655{fill:#B8BFBC;}
	.st1656{fill:#B8BFBD;}
	.st1657{fill:#BABEBB;}
	.st1658{fill:#BCC4C2;}
	.st1659{fill:#B3BCBA;}
	.st1660{fill:#B5BEBB;}
	.st1661{fill:#140F0C;}
	.st1662{fill:#81729C;}
	.st1663{fill:#81729D;}
	.st1664{fill:#453148;}
	.st1665{fill:#4E3A52;}
	.st1666{fill:#473656;}
	.st1667{fill:#513039;}
	.st1668{fill:#4F3B51;}
	.st1669{fill:#4C3047;}
	.st1670{fill:#5D3A4F;}
	.st1671{fill:#82749C;}
	.st1672{fill:#6C4A58;}
	.st1673{fill:#524354;}
	.st1674{fill:#503D59;}
	.st1675{fill:#C2B1DD;}
	.st1676{fill:#57496A;}
	.st1677{fill:#B5A5D1;}
	.st1678{fill:#8EA68C;}
	.st1679{fill:#D0D3E3;}
	.st1680{fill:#F5BCA4;}
	.st1681{fill:#BA7C83;}
	.st1682{fill:#8CA58B;}
	.st1683{fill:#709392;}
	.st1684{fill:#8CA58A;}
	.st1685{fill:#F3BEA7;}
	.st1686{fill:#DAA1A7;}
	.st1687{fill:#83435B;}
	.st1688{fill:#93B7B3;}
	.st1689{fill:#F3EDD6;}
	.st1690{fill:#F3ECD6;}
	.st1691{fill:#B97A82;}
	.st1692{fill:#83475E;}
	.st1693{fill:#DC9563;}
	.st1694{fill:#8DA58A;}
	.st1695{fill:#6F9292;}
	.st1696{fill:#D99EA6;}
	.st1697{fill:#DAC9B3;}
	.st1698{fill:#6B2D44;}
	.st1699{fill:#91B8B1;}
	.st1700{fill:#834D33;}
	.st1701{fill:#8FA78B;}
	.st1702{fill:#8CA48A;}
	.st1703{fill:#692D44;}
	.st1704{fill:#DD9489;}
	.st1705{fill:#6A856C;}
	.st1706{fill:#869C84;}
	.st1707{fill:#835037;}
	.st1708{fill:#6A826E;}
	.st1709{fill:#80445C;}
	.st1710{fill:#8A898A;}
	.st1711{fill:#AFB3C7;}
	.st1712{fill:#CDD0DD;}
	.st1713{fill:#F4EAD5;}
	.st1714{fill:#F3EAD6;}
	.st1715{fill:#CFD2E1;}
	.st1716{fill:#E8DDC6;}
	.st1717{fill:#CED1DF;}
	.st1718{fill:#F2E8D2;}
	.st1719{fill:#F2EAD6;}
	.st1720{fill:#EAE0CC;}
	.st1721{fill:#8E90A8;}
	.st1722{fill:#54978E;}
	.st1723{fill:#F5A778;}
	.st1724{fill:#F0E8D7;}
	.st1725{fill:#57918E;}
	.st1726{fill:#ACB2C5;}
	.st1727{fill:#AFB4C7;}
	.st1728{fill:#D0D2E1;}
	.st1729{fill:#ADB2C5;}
	.st1730{fill:#D0D3E1;}
	.st1731{fill:#9293AA;}
	.st1732{fill:#AFB3C6;}
	.st1733{fill:#A36D4E;}
	.st1734{fill:#A36D4D;}
	.st1735{fill:#FDB77C;}
	.st1736{fill:#FAB47B;}
	.st1737{fill:#E09965;}
	.st1738{fill:#834D32;}
	.st1739{fill:#8F91A7;}
	.st1740{fill:#D0D2DE;}
	.st1741{fill:#F3EAD4;}
	.st1742{fill:#F3ECD8;}
	.st1743{fill:#E9DDC6;}
	.st1744{fill:#F3EBD6;}
	.st1745{fill:#E9DEC9;}
	.st1746{fill:#F2EAD5;}
	.st1747{fill:#569790;}
	.st1748{fill:#F6A174;}
	.st1749{fill:#F1E8D5;}
	.st1750{fill:#58928D;}
	.st1751{fill:#DEDCD9;}
	.st1752{fill:#948E9F;}
	.st1753{fill:#9A95A7;}
	.st1754{fill:#9B98A4;}
	.st1755{fill:#B0B5C7;}
	.st1756{fill:#C1B0D8;}
	.st1757{fill:#FDA991;}
	.st1758{fill:#F5B89F;}
	.st1759{fill:#EFEEF1;}
	.st1760{fill:#E9EAED;}
	.st1761{fill:#D99388;}
	.st1762{fill:#DAAEA3;}
	.st1763{fill:#F3EBD8;}
	.st1764{fill:#DDCBB7;}
	.st1765{fill:#73454E;}
	.st1766{fill:#535359;}
	.st1767{fill:#525158;}
	.st1768{fill:#634237;}
	.st1769{fill:#F7EAE2;}
	.st1770{fill:#FCE6E0;}
	.st1771{fill:#FA7364;}
	.st1772{fill:#F87264;}
	.st1773{fill:#CA5D40;}
	.st1774{fill:#B54759;}
	.st1775{fill:#E97464;}
	.st1776{fill:#A5D0B3;}
	.st1777{fill:#A5CFB3;}
	.st1778{fill:#E4E2DF;}
	.st1779{fill:#E5E3E2;}
	.st1780{fill:#E5E5E2;}
	.st1781{fill:#E7E6E3;}
	.st1782{fill:#F17568;}
	.st1783{fill:#5E3C39;}
	.st1784{fill:#106E84;}
	.st1785{fill:#EBEBEB;}
	.st1786{fill:#EBECEA;}
	.st1787{fill:#EEE7CF;}
	.st1788{fill:#EBEBE9;}
	.st1789{fill:#EDE6CF;}
	.st1790{fill:#E9E9E6;}
	.st1791{fill:#EBEAE8;}
	.st1792{fill:#E6E2DB;}
	.st1793{fill:#E4E1DB;}
	.st1794{fill:#C95D40;}
	.st1795{fill:#0B0A0A;}
	.st1796{fill:#0A0A0A;}
	.st1797{fill:#0C0C0B;}
	.st1798{fill:#0B0B09;}
	.st1799{fill:#010201;}
	.st1800{fill:#090B09;}
	.st1801{fill:#0B0A0C;}
	.st1802{fill:#0C0B0B;}
	.st1803{fill:#0E090B;}
	.st1804{fill:#0D090C;}
	.st1805{fill:#0E090A;}
	.st1806{fill:#0D0D0F;}
	.st1807{fill:#F9C207;}
	.st1808{fill:#FAB694;}
	.st1809{fill:#33B8A1;}
	.st1810{fill:#FB68A0;}
	.st1811{fill:#A36DD1;}
	.st1812{fill:#A46DD0;}
	.st1813{fill:#FAB796;}
	.st1814{fill:#FBB696;}
	.st1815{fill:#FA689E;}
	.st1816{fill:#FAFBFA;}
	.st1817{fill:#E9A582;}
	.st1818{fill:#F3F4F2;}
	.st1819{fill:#EEF0EE;}
	.st1820{fill:#F1F3F1;}
	.st1821{fill:#F9D82A;}
	.st1822{fill:#FAB794;}
	.st1823{fill:#34B8A1;}
	.st1824{fill:#EAA684;}
	.st1825{fill:#F8D829;}
	.st1826{fill:#3BAC56;}
	.st1827{fill:#3DA958;}
	.st1828{fill:#3EAC58;}
	.st1829{fill:#FB890A;}
	.st1830{fill:#F98B0B;}
	.st1831{fill:#3CA955;}
	.st1832{fill:#3DB059;}
	.st1833{fill:#3CAD58;}
	.st1834{fill:#F88C0E;}
	.st1835{fill:#0C0A0A;}
	.st1836{fill:#0C0A0B;}
	.st1837{fill:#2D88E2;}
	.st1838{fill:#2C88E1;}
	.st1839{fill:#3DAD57;}
	.st1840{fill:#3BAE58;}
	.st1841{fill:#3CAB55;}
	.st1842{fill:#3087DE;}
	.st1843{fill:#F8D425;}
	.st1844{fill:#FCFCFC;}
	.st1845{fill:#EB4539;}
	.st1846{fill:#EC4138;}
	.st1847{fill:#3CAD57;}
	.st1848{fill:#E7493B;}
	.st1849{fill:#A369C9;}
	.st1850{fill:#E94434;}
	.st1851{fill:#2F87DF;}
	.st1852{fill:#F9F9F2;}
	.st1853{fill:#71472B;}
	.st1854{fill:#F8B694;}
	.st1855{fill:#73472A;}
	.st1856{fill:#E5AE18;}
	.st1857{fill:#F9A0CA;}
	.st1858{fill:#F99FC8;}
	.st1859{fill:#120F10;}
	.st1860{fill:#191616;}
	.st1861{fill:#181615;}
	.st1862{fill:#FAA7C4;}
	.st1863{fill:#171515;}
	.st1864{fill:#F9A7C3;}
	.st1865{fill:#171615;}
	.st1866{fill:#191716;}
	.st1867{fill:#161414;}
	.st1868{fill:#F8A7C2;}
	.st1869{fill:#1C1C1D;}
	.st1870{fill:#171717;}
	.st1871{fill:#0C090B;}
	.st1872{fill:#0E0909;}
	.st1873{fill:#0B0C0E;}
	.st1874{fill:#080808;}
	.st1875{fill:#110C0A;}
	.st1876{fill:#140E0D;}
	.st1877{fill:#100E0D;}
	.st1878{fill:#151211;}
	.st1879{fill:#F6D321;}
	.st1880{fill:#F4D020;}
	.st1881{fill:#F4D52B;}
	.st1882{fill:#F4F5F2;}
	.st1883{fill:#F6F6F4;}
	.st1884{fill:#F4F5F4;}
	.st1885{fill:#070706;}
	.st1886{fill:#080708;}
	.st1887{fill:#090909;}
	.st1888{fill:#9CD6AF;}
	.st1889{fill:#141211;}
	.st1890{fill:#1F1E1A;}
	.st1891{fill:#0C0C0A;}
	.st1892{fill:#0D0C0A;}
	.st1893{fill:#0D0C0B;}
	.st1894{fill:#14100F;}
	.st1895{fill:#151312;}
	.st1896{fill:#231F1D;}
	.st1897{fill:#27221F;}
	.st1898{fill:#2A1F1C;}
</style>
<g>
	<path class="st0" d="M537.01,465.6c-179,0-358.01,0-537.01,0C0,310.52,0,155.44,0,0.35c0.68-0.56,1.41-0.28,2.11-0.28
		c177.57-0.01,355.13-0.01,532.7-0.01c2.69,0,2.4-0.42,2.4,3.71c0,152.86,0,305.71-0.01,458.57
		C537.2,463.43,537.37,464.56,537.01,465.6z"/>
	<path class="st919" d="M369.21,240.86c-0.32-1.14-1.26-1.54-2.29-1.86c-1.02-0.31-2.05-0.26-3.09-0.26
		c-3.99,0-7.96,0.32-11.97,0.04c-3.48-0.24-6.32-1.46-8.63-4.02c-0.42-0.47-0.89-0.9-1.34-1.35c-0.43-0.34-0.26-1.18-1.03-1.22
		c-1.03,0.01-1.76,0.67-2.52,1.23c-1.99,1.44-3.9,3-5.85,4.49c-2.06,1.58-2.44,1.59-4.06-0.47c-2.41-3.06-5.42-5.57-7.82-8.63
		c-0.87-1.11-1.87-2.18-3.29-2.65c-0.34-0.09-0.7-0.12-1.05-0.12c-1.63,0.19-3.08-0.58-4.61-0.88c-0.23,0.15-0.4,0.35-0.52,0.6
		c-0.33,0.75-0.39,1.55-0.36,2.34c0.29,8.21-0.69,16.39-0.49,24.59c0.11,4.55-0.73,9.05-0.52,13.6c0.07,1.47-0.57,2.2-2.11,2.2
		c-3.27,0-6.53,0.01-9.8,0c-1.35,0-2.05-0.57-2.24-1.92c-0.39-2.68-0.61-5.38-0.84-8.07c-0.12-1.35-0.13-2.73-1.24-3.74
		c-0.26-0.17-0.53-0.29-0.84-0.35c-1.19-0.17-2.39-0.1-3.58-0.1c-21.2,0-42.4,0-63.61,0c-1.28,0-2.56,0.08-3.75-0.55
		c-1.98-1.48-2.86-4.79-2-7.53c0.67-2.15,1.86-2.86,5.15-2.82c3.74,0.05,7.47,0.85,11.21,0.38c4.3-0.54,8.6-0.33,12.89-0.4
		c3.59-0.06,7.18,0.44,10.74,0.32c7.31-0.25,14.63-0.25,21.94-0.49c-0.29,0.15-0.39,0.46,0.05,1.13c3,0.67,6.03,0.29,9.05,0.23
		c0.87-0.02,1.53-0.5,1.57-1.47c0.04-1.11-0.68-1.54-1.64-1.67c-0.95-0.13-1.91-0.08-2.87-0.08c-19.17,0-38.34,0-57.5,0
		c-1.2,0-2.4,0.01-3.57-0.3c-0.45-0.07-0.9-0.08-1.35,0.02c-1.15,1.01-2.65,0.55-3.94,0.94c-2.07,0.21-3.1,1.59-3.4,3.43
		c-0.33,2.04-0.27,4.14,0,6.2c0.31,2.3,2.09,3.76,4.44,3.82c0.79,0.02,1.57,0,2.69,0c-1.96,2.56-1.75,5.29-1.66,7.97
		c0.05,1.52,0.37,3.01,1.7,4.04c0.49,1.75,1.92,1.64,3.28,1.64c10.38,0.01,20.76,0.03,31.14,0c10.21-0.03,20.43,0.12,30.69-0.1
		c-2.15,0.3-4.36,0.09-6.56,0.12c-4.76,0.06-7.27,3.84-5.44,8.3c0.7,1.7,1.9,2.71,3.83,2.72c0.86,0,1.71,0.04,2.56,0.09
		c-0.52-0.02-1.05-0.04-1.58-0.06c-10.61-0.37-21.22-0.14-31.83-0.17c-8.69-0.02-17.39-0.08-26.08,0.04
		c-0.47,0.09-0.76,0.41-1.02,0.78c-0.64,0.02-1.28,0.02-1.91,0.07c-2.45,0.19-4.05,1.63-4.24,4.04c-0.15,1.82-0.17,3.67-0.06,5.49
		c0.14,2.25,1.24,3.39,3.42,3.9l0,0v0c0,0,0,0,0,0c0,0,0,0,0,0c0.98,0.83,2.33-0.1,3.3,0.6c-1.67,4.28-2.01,8.42,0.57,12.45
		c-2,1.23-2.63,3.06-2.75,5.26c-0.15,2.69,0.24,5.2,1.69,7.49c0.67,0.66,1.37,0.64,2.08,0.07c0.09-0.81-0.52-1.28-0.89-1.89
		c-1.55-2.5-1.62-5.21-0.45-7.79c1.07-2.35,3.47-1.9,5.5-1.91c17.06-0.12,34.12,0.1,51.18-0.14c-0.86,0.09-1.67,0.34-2.31,1.07
		c-1.81,2.08-1.95,4.48-1.04,6.97c0.83,2.27,2,2.94,4.87,2.94c10.62,0.01,21.25,0,31.87,0.01c1.1,0,2.27-0.19,3.09,0.84
		c0.45,0.19,0.88,0.17,1.25-0.19c-0.22-0.65,0-1.47-0.8-1.88c-1-0.51-1.12-1.5-1.21-2.45c-0.09-0.95,0.11-1.95-0.11-2.86
		c-0.53-2.26,1.61-3.23,2.29-4.91c0.29-0.72,1.92-0.19,2.94-0.27c0.16-0.01,0.32,0.01,0.48,0c0.54-0.04,1.2,0.12,1.41-0.59
		c0.22-0.72,0.22-1.49-0.58-1.86c-1.07-0.49-1.16-1.42-1.24-2.38c-0.12-1.43-0.11-2.86,0.04-4.29c0.09-0.88,0.28-1.58,1.21-2.13
		c1.15-0.68,1.05-1.64,0-2.46c-1.63-1.28-2.53-3.18-3.95-4.65c-0.14-0.15-0.2-0.45-0.19-0.67c0.09-1.93-0.36-3.96,1.51-5.48
		c0.96-0.78,0.69-1.64-0.5-2.08c-0.69-0.25-1.38-0.34-1.38-1.33c0-0.94-1.07-0.82-1.49-1.37c-0.43-0.29-0.93-0.23-1.41-0.27
		c-1.02-0.07-2.04,0.02-3.06-0.03c-2.27-0.11-3.08-0.82-3.3-3.1c-0.11-1.15-0.34-2.36,0.38-3.44c1.06-0.99,2.38-0.47,3.59-0.61
		c1.04-0.12,2.25,0.31,2.95-0.91c-0.68-1.43-2.03-0.76-2.93-0.98c1.33-0.05,2.82-0.05,4.3,0.21c0.36-0.05,0.66-0.22,0.92-0.47
		c1.18-0.36,2.38-0.09,3.57-0.17c0.64-0.05,1.34-0.05,1.58-0.8c0.24-0.76,0.06-1.49-0.69-1.84c-1.09-0.5-1.16-1.4-1.16-2.39
		c0-1.28-0.02-2.55,0.01-3.83c0.02-1.04,0.13-1.95,1.27-2.6c1-0.56,0.91-2.15-0.02-2.25c-1.58-0.17-2.05-1.42-3.02-2.2
		c-0.74-0.59-0.99-1.18-1.02-1.99c-0.03-0.72-0.08-1.44-0.05-2.15c0.06-1.69-0.42-3.51,1.56-4.65c0.68-0.39,0.38-1.9-0.33-1.95
		c-2.07-0.15-2.48-2.12-3.27-3.26c-1.03-1.5-0.46-3.7-0.28-5.61c0.14-1.53,1.52-1.88,2.37-2.74c1.01,0.56,1.64,1.41,2.33,2.16
		c2.14,2.37,4.26,4.76,6.36,7.16c0.74,0.84,1.31,1.91,2.72,1.06c0.56-0.34,0.85,0.24,1.12,0.59c1.48,1.89,2.92,3.79,3.85,6.04
		c0.52,1.25,1.09,2.49,1.75,3.67c1.39,2.49,3.5,3.39,6.24,2.71c1.32-0.33,2.57-0.87,3.77-1.51c2.55-1.36,5.26-2.28,8.03-3.05
		c1.69-0.47,3.38-0.95,5.04-1.49c2.61-0.86,4.91-2.28,7.03-4C368.99,243.02,369.57,242.1,369.21,240.86z M291.17,282.45
		c-2.8,0.25-5.63,0.12-8.45,0.1C285.53,282.52,288.35,282.5,291.17,282.45z M220.04,285.75c0.09-1.91,1.19-2.86,3.07-2.98
		c1.2-0.07,2.39-0.06,3.59-0.06c17.84-0.02,35.68,0.05,53.54-0.13c-0.83,0.03-1.66,0.06-2.49,0.14c-0.25,0.1-0.48,0.25-0.66,0.45
		c-0.18,0.5,0.13,0.76,0.49,1c0.98,0.44,2.03,0.35,3.06,0.36c3.58,0.02,7.15-0.01,10.73,0.02c1.02,0.01,2.16-0.15,2.96,0.63
		c3.22,3.12,7.58,4.3,11.24,6.66c0.77,0.41,1.33,1.19,2.3,1.24c0.12-0.01,0.23-0.04,0.32-0.1c-0.78,0.89-1.89,0.73-2.79,0.51
		c-1.98-0.48-3.96-0.37-5.94-0.38c-5.26-0.02-10.52,0.05-15.78-0.03c-3.09-0.05-6.16,0.26-9.22,0.51
		c-16.7-0.02-33.4-0.02-50.09-0.01c-0.76,0-1.53-0.04-2.22,0.25c-0.18,0-0.36,0-0.53,0c0.01-0.12-0.01-0.23-0.05-0.36
		C219.55,291.21,219.92,288.45,220.04,285.75z M290.28,294.49c-0.26,0.04-0.51,0.05-0.77,0.06c-0.01,0-0.02,0-0.04-0.01
		C289.74,294.54,290.01,294.52,290.28,294.49z M232.43,306.54c-1.21,0-2.39-0.06-3.55-0.44c-2.82-0.72-3.42-1.42-3.6-4.22
		c-0.05-0.72-0.05-1.44-0.01-2.15c0.19-3.03,1.12-3.91,4.14-4.07c2.97-0.16,5.88,0.48,8.84,0.49c11.65,0.06,23.3-0.22,34.95-0.03
		c1.85,0.03,3.67-0.23,5.48-0.53c0.6-0.1,7.24-0.4,7.65-0.36c3.8,0.34,7.6-0.7,11.41-0.02c0.08,0.01,0.16,0,0.24-0.02
		c3.96-0.72,7.95-0.24,11.92-0.35c0.5-0.01,1.14-0.12,1.29,0.67c-1.23,0.01-2.46-0.02-3.69-0.01c-8.13-0.02-16.27,0.04-24.4-0.01
		c-1.3-0.01-2.54,0.03-3.56,1.02c-2.61,2.56-1.5,8.43,1.89,9.9c3.17,0.07,6.34,0.1,9.48,0.11
		C271.42,306.54,251.92,306.53,232.43,306.54z M286.62,308.44c9.31-0.09,18.62,0.01,27.93,0.01
		C305.24,308.44,295.93,308.44,286.62,308.44z M303.35,306.51c-0.89,0-1.78,0-2.67,0c6.07-0.02,11.95-0.06,17.43,0.02
		C314.28,306.61,308.82,306.5,303.35,306.51z M310.27,281.11c2.03,2.99,4.38,5.68,7.01,8.15c1.22,1.15,2.34,2.4,3.25,3.82
		c0.39,0.6,0.82,1.26,0.45,2c-0.43,0.86-1.3,0.82-2.1,0.8c-1.59-0.04-3.12-0.7-4.74-0.53c-0.08,0.01-0.16,0.01-0.24,0.02
		c-1.77-1.08-3.55-2.16-5.32-3.24c-0.01-0.17-0.05-0.33-0.12-0.49c-1.54-2.11-3.92-3.04-6.14-4.03c-6.76-3.03-6.41-4.92-4.88-10.64
		c0.5-1.87-0.36-4.43,1.48-5.52c1.73-1.03,4.07-0.23,6.13-0.37c1.66-0.11,2.58,0.44,2.49,2.28
		C307.41,276.29,308.67,278.75,310.27,281.11z"/>
	<path class="st1110" d="M321.79,371.92c6.23,0.19,12.46,0.29,18.67,0.6c7.09,0.36,14.19,0.65,21.29,0.99
		c6.69,0.32,13.38,0.79,20.04,1.4c9.21,0.83,18.44,1.51,27.58,2.89c5.35,0.81,10.73,1.58,15.91,3.26c1.07,0.35,2.13,0.71,3,1.44
		c1.19,1,1.18,2.03-0.07,2.95c-1.24,0.91-2.71,1.39-4.16,1.79c-6.16,1.7-12.45,2.68-18.79,3.42c-5.22,0.61-10.45,1.22-15.67,1.79
		c-2.06,0.22-4.13,0.31-6.2,0.49c-5.48,0.48-10.99,0.63-16.47,1.12c-7.31,0.65-14.66,0.64-21.98,1.29
		c-0.16,0.01-0.32,0.02-0.48,0.02c-6.95-0.05-13.89,0.4-20.83,0.64c-14.38,0.5-28.76,0.24-43.13,0.54
		c-5.03,0.11-10.06,0.35-15.09,0.18c-14.14-0.48-28.28-0.02-42.41-0.49c-5.83-0.2-11.66-0.18-17.48-0.41
		c-7.26-0.29-14.51-0.57-21.77-0.96c-7.64-0.41-15.29-0.87-22.92-1.44c-7.15-0.53-14.31-1.11-21.44-1.89
		c-8-0.87-15.98-1.94-23.82-3.78c-1.95-0.46-3.87-1.02-5.62-2.01c-1.97-1.12-2.02-2.38-0.08-3.54c2.43-1.46,5.21-1.99,7.94-2.55
		c8.12-1.68,16.34-2.7,24.6-3.46c8.18-0.75,16.36-1.46,24.56-1.95c5.41-0.33,10.83-0.66,16.24-0.95c7.81-0.42,15.62-0.75,23.44-1
		c3.98-0.13,7.96-0.46,11.95-0.28c-0.22,1.24-1.26,0.99-2.07,1.12c-2.55,0.39-3.39,1.22-3.97,3.73c-0.6,2.63-0.69,5.17,0.41,7.73
		c0.65,1.52,1.71,2.24,3.25,2.43c0.79,0.1,1.6,0.05,2.39,0.05c34.27,0,68.54,0,102.82,0c0.48,0,0.96,0.02,1.44-0.01
		c1.97-0.13,1.9-0.34,1.18-2.25c-1.15-3.05-1.2-6.33-0.01-9.32c0.67-1.66,0.84-2.27-1.1-2.45
		C322.37,372.99,321.6,372.89,321.79,371.92z"/>
	<path class="st919" d="M248.84,98.72c-1.07-3.95-1.72-7.94-1.01-12.04c0.56-3.27,2.32-5.56,5.53-6.56c0.75-0.23,1.28-0.6,1.69-1.21
		c2.98-4.53,7.36-5.18,12.24-4.4c2.38,0.38,4.61,1.25,6.75,2.34c2.36,1.2,4.81,2.1,7.37,2.76c5.04,1.31,6.51,6,3.09,9.94
		c-0.69,0.79-0.98,1.59-1.1,2.54c-0.22,1.76-0.77,3.41-1.86,4.84c-1.4-0.09-1.11-1.2-1.26-2.06c-0.14-0.76,0.38-1.84-0.96-2.02
		c-4.56,0.91-8.89-0.21-13.11-1.71c-2.07-0.74-3.47-0.99-4.6,1.42c-0.71,1.52-2.55,2.4-3.03,4.2c-0.3,0.61-0.48,1.27-0.63,1.93
		c-1.19,2.17-1.6,2.25-3.11,0.55c-1.75-1.97-1.96-1.99-4.22-0.25C249.94,99.4,249.3,99.61,248.84,98.72z"/>
	<path class="st919" d="M321.79,371.92c0.68,0.83,1.63,0.41,2.47,0.51c0.64,0.08,1.33,0.01,1.62,0.75c0.28,0.74,0.21,1.55-0.52,1.9
		c-1.39,0.67-1.3,1.87-1.32,3.06c-0.02,1.28-0.02,2.55-0.01,3.83c0.01,1.26-0.17,2.55,1.38,3.24c0.74,0.33,0.72,1.2,0.5,1.92
		c-0.2,0.68-0.83,0.65-1.39,0.67c-0.56,0.02-1.12,0.02-1.68,0.02c-34.89,0.01-69.79,0.01-104.68,0.01c-0.64,0-1.28-0.01-1.92-0.02
		c-1.89-0.06-3.14-1.09-3.88-2.73c-1.41-3.15-1.19-6.43-0.21-9.6c0.57-1.83,2.02-3.02,4.13-3.11c0.78-0.03,1.61,0.15,2.32-0.36
		c0.35-0.17,0.43-0.44,0.25-0.76c-1.43-2.62-0.95-5.44-0.75-8.18c0.16-2.3,1.74-3.67,4.07-3.94c0.54-0.06,1.09-0.05,1.67-0.08
		c-1.56-4.69-2.73-9.22,1.77-12.96c0.22-0.23,0.48-0.38,0.79-0.45c0.31-0.06,0.61-0.06,0.92-0.02c1.18,0.28,2.38,0.23,3.57,0.23
		c29.94,0.01,59.88-0.02,89.77,0.01c-0.93-0.23-2.08,0.16-2.58-1.04c-0.03-0.41,0.09-0.76,0.44-1.01c0.69-0.6,2.08-0.29,2.23-1.53
		c0.19-1.58,0.41-3.22-0.12-4.73c-0.35-0.98-1.53-0.65-2.36-0.66c-7.73-0.04-15.47-0.02-23.2-0.02c-3.59,0-7.18,0.02-10.76-0.01
		c-1.11-0.01-2.25,0.08-3.24-0.61c-0.24-0.24-0.3-0.51-0.18-0.82c0.23-0.22,0.49-0.38,0.8-0.47c5.1-0.31,10.2-0.11,15.29-0.13
		c7.89-0.04,15.78-0.02,23.67,0c1.08,0,2.27-0.27,3.13,0.74c-0.93,0.69-1.14,1.71-1.17,2.76c-0.05,1.35-0.05,2.71,0.02,4.06
		c0.06,1.02,0.11,2.08,1.39,2.49c0.47,0.15,0.68,0.65,0.54,1.19c-0.14,0.54-0.57,0.74-1.05,0.83c-0.31,0.06-0.64,0-0.95,0.06
		c-1.05,0.19-2.48-0.6-3.11,0.45c-0.93,1.54-2.66,2.83-2.11,5.05c0.17,0.68,0.03,1.43,0.05,2.15c0.03,1.15-0.3,2.47,1.39,2.84
		c0.17,0.04,0.41,0.36,0.4,0.54c-0.02,1.23,0.82,1.28,1.73,1.48c1.11,0.25,1.45,1.26,0.58,1.92c-2.8,2.14-1.62,5.05-1.68,7.72
		c-0.01,0.61,0.44,0.99,0.98,1.24C321.48,370.66,321.57,371.33,321.79,371.92z"/>
	<path class="st919" d="M267.96,121.75c4.53,1.1,8.74,2.9,12.37,5.88c3.4,2.78,5.69,6.36,7.33,10.39c0.28,0.35,0.26,0.7,0.01,1.05
		c-1.73-0.27-2.11-1.84-2.76-3.04c-3.02-5.52-7.55-9.18-13.43-11.3c-1.76-0.63-3.24-0.58-4.99,0.36c-4.18,2.25-8.48,1.77-12.19-1
		c-2.62-1.95-5.09-2.38-8-1.2c-0.66,0.27-1.37,0.44-2.07,0.61c-8.84,2.1-14.61,7.59-18.29,15.81c-4.09,9.14-7.87,18.35-9.94,28.18
		c-0.63,2.97-0.91,5.99-0.47,9.04c0.39,2.74,1.76,4.75,4.24,5.99c3.18,1.59,6.58,2.05,10.04,1.55c8.33-1.21,16.44-3.31,24.24-6.55
		c1.96-0.82,2.78-1.87,2.21-4.01c-0.51-1.93-0.82-3.91-1.23-5.86c-0.26-1.21-0.9-1.77-2.19-1.63c-5.79,0.65-11.63,0.69-17.43,1.32
		c-2.08,0.22-4.15,0.28-6.22,0.11c-0.7-0.06-1.57-0.18-1.62-1.09c-0.06-0.96,0.83-1.02,1.51-1.2c0.31-0.08-0.06-0.07,0.23-0.02
		c4.1,0.71,5.15-2.06,6.02-5.16c0.77-2.77,1.89-5.43,2.89-8.13c0.32-0.85,0.67-2.17,1.82-1.74c1.07,0.39,0.65,1.66,0.4,2.57
		c-0.89,3.15-2.27,6.14-3.22,9.28c-0.73,2.43-0.57,2.43,1.95,2.4c5.81-0.06,11.59-1.5,17.42-0.28c1.12,0.23,2.02-0.37,2.85-1.01
		c2.08-1.62,4.07-3.35,6.46-4.54c1.27-0.63,1.59-1.94,1.94-3.17c1.21-4.22,2.23-8.5,3.44-12.72c0.93-3.25,3.12-5.26,6.5-5.19
		c3.41,0.06,6.79,0.76,9.99,2.08c-0.3,1.22-1.34,0.99-2.2,1.12c-2.42,0.19-4.69-0.8-7.09-0.83c2.88,1.21,5.92,1.93,8.93,2.68
		c5.64,1.41,11.1,3.5,16.86,4.42c0.35,0,0.69,0,1.04,0c1.33-0.07,2.38-0.81,3.48-1.42c4.43-2.45,8.48-5.58,13.22-7.49
		c0.55,0.03,1.29-0.31,1.38,0.67c-0.23,1.28-1.3,1.77-2.26,2.31c-3.21,1.79-6.27,3.84-9.51,5.56c-1.5,0.8-2.42,1.94-2.86,3.62
		c-2.25,8.41-4.77,16.73-7,25.14c-0.36,1.36-1.07,2.74,0.28,4.01c0.27,0.25,0,0.58-0.27,0.79c-2.62,0.85-5.39-0.14-8.01,0.65
		c-9.31,1.46-18.62,2.98-27.8,5.13c-6.99,1.64-14.12,2.96-20.11,7.34c-3.87,2.83-7.88,5.47-11.37,8.78
		c-0.46,0.44-0.98,0.82-1.54,1.13c-0.48,0.24-0.97,0.34-1.48,0.1c-1.38-0.1-1.79-1.2-2.19-2.23c-0.74-1.92-0.71-3.93-0.39-5.91
		c0.22-1.37,0.21-2.68-0.12-4.02c-0.32-1.32-0.51-2.67-0.3-4.04c0.16-1.04-0.31-1.44-1.34-1.44c-1.84-0.01-3.66-0.14-5.46-0.59
		c-4.77-1.21-7.48-4.42-7.91-9.32c-0.41-4.62,0.49-9.07,1.71-13.46c2.86-10.26,6.73-20.11,12.11-29.34
		c2.12-3.63,4.99-6.38,8.77-8.22c4.26-2.07,8.73-3.51,13.39-4.35c2.15-0.39,2.14-0.39,2.53-2.43c0.56-2.98,1.2-5.94,1.36-8.98
		c-0.24-1.46-0.69-2.93,0.26-4.32c1.77-0.21,1.32,1.23,1.4,2.06c0.3,3.04-0.39,6-0.95,8.96c-0.46,2.44-1.57,4.94,1.57,6.66
		c3.71,2.04,7.51,2.1,10.18-0.16c0.24-0.21,0.49-0.4,0.78-0.55C267.27,121.41,267.64,121.45,267.96,121.75z"/>
	<path class="st919" d="M226.37,345.99c-0.25,0.03-0.5,0.07-0.75,0.1c-1.27-0.77-1.86-1.99-1.95-3.38c-0.19-2.91-0.71-5.89,1.26-8.6
		c-0.95-0.5-1.83-0.2-2.66-0.3c-2.42-0.3-3.97-1.71-4.2-4.12c-0.18-1.9-0.18-3.82,0.08-5.72c0.32-2.37,1.5-3.45,3.84-3.73
		c2.4,0.65,4.73-0.28,7.1-0.29c28.83-0.01,57.65,0.01,86.48-0.05c1.44,0,2.77,0.87,4.22,0.32c0.48-0.08,0.97-0.09,1.4,0.14
		c0.91,0.49,1.1,1.29,0.3,1.89c-2.93,2.19-1.43,5.2-1.58,7.9c1.34,0.82,1.37,3.13,3.53,3.05c0.58-0.02,1.09,0.31,1.19,0.95
		c0.1,0.65,0.11,1.31-0.81,1.4c-13.1-0.01-26.2-0.03-39.29-0.05c-1.04,0-2.08-0.03-3.11-0.04c0.47-1.47,1.72-0.88,2.63-0.89
		c11.9-0.04,23.81-0.03,35.71-0.03c-11.1,0-22.2-0.29-33.28,0.06c-18.37,0.58-36.73,0.19-55.1,0.35c-5.64,0.05-7.53,2.79-5.62,8.27
		C226.04,344.14,226.61,344.97,226.37,345.99z"/>
	<path class="st919" d="M225.47,241.45c-1.24,0.83-2.63,0.59-3.99,0.56c0.74-0.62,1.72-0.08,2.65-0.6
		c-2.09-2.48-1.63-5.44-1.51-8.31c0.06-1.48,0.88-2.69,2.08-3.59c0.49-0.37,0.85-0.7,0.43-1.33c0.23-0.22,0.5-0.37,0.81-0.44
		c17.71-0.05,35.43-0.04,53.14,0c3.25,0.01,6.51,0.56,9.73-0.21c0.29-0.27,0.47-0.59,0.52-0.98c-0.24-6.5,1.22-6.2-6.28-7.22
		c-0.78-0.11-1.6-0.1-2.21-0.74c-0.2-0.79,0.07-1.38,0.75-1.8c2.95-0.42,5.68,0.46,8.36,1.48c1.44,0.55,1.81,1.92,1.87,3.35
		c0.46,10.11,1.5,20.18,2.34,30.27c0.09,1.1,0.19,2.26-0.79,3.11c-0.16,0-0.32-0.01-0.48-0.01c-0.34-0.38-0.69-0.75-1.17-0.98
		c-3.82-0.49-7.65-0.06-11.47-0.25c-1.02-0.05-2.34,0.42-2.76-1.15c0.85-0.96,2.02-0.83,3.11-0.85c2.79-0.05,5.58-0.05,8.36-0.01
		c1.8,0.02,2.59-0.48,2.34-2.52c-0.48-3.9-0.37-3.82-4.39-3.95c-2.91-0.1-5.89,0.63-8.73-0.59c-0.23-0.23-0.29-0.49-0.18-0.8
		c1.12-0.83,2.23-0.88,3.33,0.03c2.87,0.02,5.74,0.05,8.61,0.05c0.47,0,0.96-0.03,1.42-0.14c0.32-0.07,0.48-0.39,0.5-0.73
		c0.03-0.44-0.13-0.86-0.57-0.91c-0.79-0.11-1.59-0.13-2.38-0.13c-19.95,0-39.89,0-59.84-0.01c-0.93,0-1.92,0.27-2.79-0.35
		c0.77-1.09,1.96-0.97,3.05-0.97c16.38-0.04,32.76-0.09,49.14,0.04c3.01,0.03,6.04,0.36,9.08,0.32c-1.81,0-3.62,0.06-5.42-0.01
		c-2.74-0.09-4.26-2.08-4.32-5.52c-0.05-2.92,1.6-5.06,4.14-5.22c1.83-0.12,3.67,0.01,5.51-0.06c-16.49,0.35-32.98,0.13-49.48,0.19
		c-2.48,0.01-4.97,0.17-7.43-0.03c-6.22-0.51-6.98,2.52-5.88,8.3C224.87,239.65,225.62,240.42,225.47,241.45z"/>
	<path class="st919" d="M305.51,147.53c-0.38,0.01-0.76,0.02-1.14,0.03c-4.83-3.83-10.63-5.07-16.49-6.2
		c-0.99-0.19-2.33,0.09-2.72-1.38c0.79-0.26,1.81,0.39,2.41-0.62c0-0.09-0.01-0.19-0.01-0.28c0.03-0.35,0.07-0.71,0.1-1.06
		c0.52,1.52,1.69,2.08,3.19,2.36c4.58,0.84,9.04,2,12.81,4.94c0.64,0.5,1.1,0.53,1.55-0.2c2.12-3.45,5.53-5.2,9.07-6.73
		c1.39-0.6,2.84-1.05,4.23-1.66c1.26-0.55,2.42-0.77,3.45,0.41c0.73,0.83,1.65,0.03,2.43,0.23c0.47,0.89-0.02,1.62-0.23,2.35
		c-1.33,4.51-2.69,9.01-4.04,13.52c-0.31,1.05-0.86,2.11,0.32,3.03c0.19,0.15,0.23,0.59,0.2,0.89c-0.27,3.16-0.73,6.28-2.25,9.14
		c-0.39,0.73-0.77,1.55-1.59,1.67c-1.33,0.19-1.59,1.12-1.89,2.11c-0.07,0.23-0.18,0.45-0.24,0.68c-1.31,4.93-0.47,3.85-5.1,6.53
		c-1.45,0.84-2.86,1.73-4.27,2.58c0.08,0.83,0.78,0.76,1.22,0.97c1.98,0.96,3.63,2.31,5.02,3.99c4.34,5.22,8.22,10.79,12.01,16.41
		c5.97,8.86,11.73,17.87,17.36,26.96c1.63,2.63,1.64,2.62,0.98,5.2c-0.36-0.32-0.71-0.65-1.07-0.97c-0.21-1.01-0.36-2.01-0.94-2.93
		c-8.99-14.25-17.87-28.58-28.16-41.97c-3.54-4.61-7.9-7.01-13.78-6.65c-1.52,0.09-3.21,0.54-4.58-0.68
		c0.65-0.61,1.47-0.45,2.23-0.46c2.19-0.03,4.38-0.03,6.57-0.05c2.76-1.58,5.58-3.05,8.28-4.73c2.54-1.57,3.18-4.31,1.66-6.88
		c-0.83-1.4-0.63-2.94-0.47-4.43c0.18-1.75,0.93-3.38,1.44-5.05c0.34-1.1,1.31-1.58,2.29-1.94c1.74-0.63,2.62-1.85,3.09-3.63
		c1.05-3.93,2.48-7.75,3.54-11.67c0.27-1,1.2-1.7,1.14-2.81c-0.33-0.49-0.74-0.07-1.11-0.09c-1.4-0.62-2.71-0.34-4.12,0.14
		C312.86,140.33,308.35,142.75,305.51,147.53z"/>
	<path class="st919" d="M267.96,121.75c-0.31,0-0.62,0-0.93,0c-0.9-1.14-1.98-1.97-3.39-2.5c-1.88-0.71-3.46-1.98-4.9-3.38
		c-0.46-0.45-0.85-1.08-0.35-1.7c0.52-0.66,1.17-0.3,1.71,0.05c0.94,0.61,1.7,1.47,2.67,2.03c7.68,4.41,12.68,0.96,14.89-6.5
		c0.58-1.96-1.31-2.05-2.39-3.08c-0.34,1.64-0.93,3-2.75,3.1c-0.68,0.04-1.3-0.16-1.59-0.84c-0.32-0.75,0.33-0.97,0.79-1.25
		c1.92-1.19,1.05-2.65,0.58-4.12c-0.24,0.04-0.34,0.03-0.39,0.08c-4.74,4.57-7.65,4.03-10.36-1.98c-0.37-0.82-0.95-1.22-1.73-1.5
		c-0.88-0.32-1.89-0.46-2.37-1.46c0.05-0.66-0.19-1.39,0.46-1.9c2.09,1.17,3.93,1.87,6.16-0.23c2.08-1.96,5.56-1.08,7.33,1.3
		c1.71,2.3,1.71,2.3,3.8,0.47c0.54-0.48,1.15-0.84,1.84-1.06c2.89-0.92,2.89-0.93,2.6-3.87c-0.05-0.47-0.11-0.95-0.12-1.42
		c0.74-0.76,1.31-0.59,1.46,0.41c0.13,0.85,0.03,1.74,0.05,2.61c0.02,0.68-0.27,1.45,0.51,1.94c-0.23,0.68-0.26,1.21,0.28,1.92
		c2.39,3.13,2.06,5.5-1.12,7.95c-0.89,0.68-1.04,1.52-1.25,2.45c-0.71,3.1-2.04,5.86-4.36,8.1c-1.54,1.49-3.32,2.55-5.52,2.47
		C268.04,119.76,267.79,120.53,267.96,121.75z"/>
	<path class="st919" d="M225.81,228.13c-0.22,0.02-0.45,0.03-0.68,0.05c-0.77-0.53-1.11-1.31-1.3-2.18
		c-0.47-2.12-0.49-4.27-0.17-6.38c0.37-2.43,2.28-4.08,4.81-3.99c4.2,0.15,8.4,0.03,12.61,0.03c0.44-0.59,1.01-0.93,1.75-0.97
		c6.38,1.87,12.74,0.92,19.1-0.13c0.52,0.03,1.01,0.23,1.5,0.36c1.23,0.18,2.47,0.02,3.71,0.14c0.21,0.02,0.55,0.61,0.71-0.06
		c0.03-0.28,0.16-0.48,0.4-0.63c3.15-0.89,6.05,0.49,9.02,1.05c1.47,0.27,3.22,0.17,4.17,1.78c-0.15,0.54-0.3,1.08-0.45,1.61
		c0.33,1.27-0.27,2.49-0.2,3.76c0.12,2.46,0.83,3.14,3.3,3.36c1.99,0.18,4.12-0.63,5.97,0.75c-0.01,0.35-0.02,0.69-0.03,1.04
		c-2.89,0.87-5.83,0.36-8.75,0.31c-0.93-0.01-1.5-0.84-1.98-1.59c-1.09-1.71-1.21-3.59-0.91-5.53c0.39-2.55,0.4-2.75-2.22-3.02
		c-6.76-0.69-13.53-0.74-20.27,0.21c-3.43,0.48-6.81,0.36-10.23-0.18c-5.7-0.89-11.46-0.4-17.19-0.31c-1.44,0.02-2.29,0.99-2.75,2.3
		c-0.63,1.78-0.58,3.6-0.2,5.43C225.71,226.25,226.2,227.15,225.81,228.13z"/>
	<path class="st1111" d="M319.78,320.24c-0.68,0.62-1.51,0.41-2.29,0.41c-31.07,0.01-62.14,0-93.21-0.01c-0.78,0-1.61,0.22-2.3-0.39
		c0.76-0.04,1.51-0.07,2.27-0.11c0.7,0,1.4,0,2.1,0c0.87-0.91,2.03-0.86,3.14-0.86c16.45-0.03,32.9-0.19,49.35,0.04
		c12.05,0.17,24.11,0.02,36.16,0.16c1.08,0.01,2.26-0.31,3.19,0.61c0.41,0.01,0.83,0.03,1.24,0.04
		C319.56,320.11,319.68,320.14,319.78,320.24z"/>
	<path class="st919" d="M224.89,280.17c-0.1,0.33-0.31,0.56-0.64,0.67c-1.35-2.54-1.64-5.14-1.64-8.59c0.13-1.46,0.76-2.75,2-3.64
		c0.41-0.29,0.76-0.57,0.65-1.13c0.81,1.01,1.95,0.88,3.06,0.88c14.83,0,29.66,0,44.49,0c6.22,0,12.44-0.01,18.66,0.02
		c0.82,0,1.78-0.36,2.42,0.55c-0.76,0.6-1.67,0.43-2.53,0.45c-20.08,0.59-40.17,0.4-60.26,0.42c-0.96,0-1.91-0.01-2.87,0.03
		c-2.77,0.11-3.56,0.99-3.91,3.74C224.04,275.83,225.15,277.93,224.89,280.17z"/>
	<path class="st1112" d="M254.04,104.55c-0.04,1.46,0.53,2.97-0.41,4.34c-2.31-3.05-4.45-6.19-4.79-10.17
		c0.46,0.29,0.92,0.25,1.38,0C250.54,101.28,251.86,103.19,254.04,104.55z"/>
	<path class="st919" d="M242.61,215.19c-0.48,0.25-0.94,0.58-1.53,0.46c-0.2-0.23-0.35-0.55-0.59-0.69
		c-4.12-2.32-6.77-5.83-8.34-10.22c-0.18-0.52-0.45-1-0.69-1.5c0.33-0.18,0.66-0.36,1-0.54c0.9,0.41,1.13,1.29,1.43,2.1
		c1.4,3.79,3.78,6.73,7.31,8.73C241.84,213.89,242.72,214.14,242.61,215.19z"/>
	<path class="st919" d="M318.36,268.88c0.32,0,0.64,0.01,0.96,0.01c-0.08,0.38-0.01,0.94-0.25,1.13c-2.39,1.97-1.63,4.6-1.53,7.08
		c0.02,0.47,0.22,0.92,0.33,1.39c-0.33,0.15-0.66,0.3-1,0.45c-1.33-1.41-1.33-3.19-1.18-4.9c0.16-1.94-0.66-2.49-2.44-2.43
		c-1.38,0.04-2.87,0.32-4.04-0.82c0.67-0.8,1.59-0.39,2.4-0.48c1.76-0.2,3.57,0.34,5.3-0.33
		C317.09,269.19,317.92,269.3,318.36,268.88z"/>
	<path class="st1113" d="M242.61,215.19c-3-1.67-5.76-3.61-7.65-6.6c-1.16-1.84-1.87-3.84-2.5-5.88c3.04-2.68,6.2-5.2,9.44-7.64
		c5.55-4.18,11.61-7.09,18.42-8.65c10.94-2.49,21.91-4.81,33.05-6.22c1.75-0.04,3.51-0.09,5.26-0.11c5.47-0.07,9.81,1.98,13.21,6.41
		c7.39,9.64,14.15,19.7,20.63,29.96c2.85,4.52,5.67,9.06,8.58,13.55c0.63,0.98,0.66,1.69-0.22,2.43c-3.02,2.31-6.04,4.62-9.07,6.92
		c-1.55,1.17-1.58,1.18-2.83-0.28c-3.67-4.27-7.49-8.39-11.42-12.42c-2.38-1.33-3.64-3.75-5.4-5.67c-1.04-1.13-0.57-2.74-0.68-4.15
		c-0.33-4.36-1.14-8.51-4.71-11.58c-2.29-1.97-4.94-3.15-7.79-3.99c-0.86-0.25-1.56,0.08-2.29,0.38
		c-5.95,2.47-11.69,5.42-17.64,7.92c-3.96,1.66-8,3.13-12,4.7c-1.55,0.61-3.15,1.09-4.86,0.85c-2.14,0.2-4.19,0.9-6.33,1.19
		C251.31,216.91,246.92,216.61,242.61,215.19z"/>
	<path class="st1114" d="M281.44,217.19c-4.43-1.07-8.84-2.23-13.42-2.51c-0.51-0.84,0.05-1.14,0.71-1.37
		c7.38-2.57,14.45-5.86,21.55-9.09c2.03-0.92,4.04-1.88,6.09-2.76c1.28-0.55,2.36-0.56,3.65-0.14c8,2.62,11.62,7.57,11.6,16.04
		c0,1.92,0.09,3.82,0.42,5.71c0.14,0.83,0.22,1.58-0.43,2.23c-0.02,1.91-0.06,3.83-0.06,5.74c-0.03,12.21-0.49,24.41-1,36.6
		c-0.07,1.77-0.09,1.79-1.71,1.79c-4.07-0.02-8.14-0.05-12.21-0.1c-1.68-0.02-1.71-0.06-1.88-1.72c-0.31-3.09-0.61-6.19-0.87-9.29
		c-0.1-1.12-0.17-2.23-0.5-3.31c0.12-3.27-0.43-6.5-0.65-9.75c-0.33-4.83-0.86-9.66-1.23-14.49c-0.25-3.25-0.42-6.51-0.52-9.76
		c-0.04-1.34-0.53-2.08-1.84-2.33C286.58,218.18,284.06,217.44,281.44,217.19z"/>
	<path class="st1115" d="M318.19,320.09c-29.01,0-58.02,0-87.03,0c-1.6,0-3.2,0.03-4.79,0.04c-2.16-0.85-2.91-2.57-2.89-4.75
		c0.01-1.28-0.04-2.56,0.09-3.83c0.24-2.33,1.59-3.58,3.9-3.76c0.4-0.03,0.8-0.01,1.2-0.01c28.53,0,57.06,0,85.59,0.01
		c1.19,0,2.39,0.07,3.58,0.17c0.26,0.02,0.56,0.27,0.5,0.67c-0.05,0.3-0.3,0.38-0.52,0.39c-0.72,0.04-1.44,0.04-2.16,0.04
		c-10.79,0-21.58,0.06-32.36-0.06c-3.19-0.04-4.21,0.9-4.57,4.41c-0.07,0.7,0.04,1.44,0.17,2.14c0.49,2.49,1.37,3.23,3.9,3.24
		c10.71,0.01,21.42,0,32.13,0c0.96,0,1.92-0.03,2.87,0.05C318.75,318.94,318.33,319.58,318.19,320.09z"/>
	<path class="st931" d="M281.35,243.92c-1.1-0.09-2.2-0.11-3.29,0.08c-2.23,2.34-2.72,4.89-1.25,7.87c0.55,1.11,1.17,1.5,2.37,1.48
		c3.83-0.07,7.65-0.05,11.48,0c0.69,0.01,1.66-0.5,2,0.67c-0.27,1.03-1.12,0.73-1.77,0.73c-22.99,0.01-45.97,0.02-68.96,0.01
		c-0.33,0-0.63-0.05-0.92-0.21c-1.37-0.88-2.06-2.12-2.17-3.77c-0.11-1.6-0.26-3.19,0.01-4.77c0.36-2.08,1.63-3.26,3.75-3.35
		c1.91-0.08,3.84-0.08,5.74,0.09c2.87,0.27,5.75,0.23,8.61,0.11c7.1-0.29,14.19-0.33,21.29,0.01c2.86,0.13,5.73-0.06,8.59-0.12
		c7.82-0.17,15.64-0.03,23.46-0.1c0.31,0,0.63,0.03,0.86,0.31c0,0.76-0.62,0.58-1.02,0.59c-2.15,0.03-4.31,0-6.47,0.02
		C282.88,243.56,282.06,243.42,281.35,243.92z"/>
	<path class="st1116" d="M224.89,280.17c-2.04-2.8-1.57-5.92-0.97-8.96c0.3-1.51,1.52-2.39,3.17-2.43c0.64-0.02,1.28-0.02,1.92-0.02
		c20.6,0,41.19-0.01,61.79,0c1.03,0,2.07,0.1,3.1,0.16c0.07,1.01-0.65,0.88-1.28,0.89c-3.11,0.01-6.23,0.13-9.34-0.01
		c-3.01-0.14-4.33,1.19-4.51,4.24c-0.06,0.96-0.02,1.92,0.21,2.85c0.46,1.9,1.36,2.67,3.35,2.72c3.35,0.08,6.7,0.07,10.05,0.16
		c0.72,0.02,2.01-0.38,2.02,0.5c0.01,1.09-1.27,0.55-1.96,0.55c-17.72,0.03-35.43,0.03-53.15,0.03c-3.83,0-7.66,0-11.49-0.01
		C226.8,280.84,225.72,280.99,224.89,280.17z"/>
	<path class="st931" d="M277.54,283.24c-0.14-0.01-0.27,0.03-0.38,0.11c-1.71,3.11-1.24,6.19,0.13,9.26
		c-0.04,1.28-0.99,1.18-1.83,1.2c-1.39,0.03-2.79-0.06-4.16,0.25c-15.82,0-31.63,0-47.45-0.01c-0.79,0-1.6,0.17-2.36-0.2
		c-1.87-0.77-2.61-2.18-2.5-4.17c0.08-1.43-0.03-2.87,0.04-4.31c0.1-2.11,1.35-3.42,3.46-3.48c2.79-0.08,5.59-0.02,8.38-0.02
		c20.28-0.01,40.55-0.02,60.83,0.01c0.89,0,2.16-0.66,2.66,0.82c-1.68,0.67-3.44,0.23-5.16,0.3
		C285.31,283.19,281.42,282.78,277.54,283.24z"/>
	<path class="st1117" d="M225.47,241.45c-1.55-1.27-2.1-2.93-1.96-4.89c0.06-0.87-0.01-1.76,0.02-2.63
		c0.13-2.98,1.51-4.31,4.51-4.31c12.38,0,24.77,0,37.15,0.01c7.67,0,15.34,0.02,23.01,0.03c0.4,0,0.8-0.02,1.2,0.01
		c0.44,0.03,1.08-0.11,1.04,0.6c-0.03,0.67-0.65,0.57-1.11,0.57c-2.24,0-4.47-0.03-6.71-0.01c-2.49,0.02-3.46,0.87-3.84,3.3
		c-0.16,1.04-0.11,2.07,0.06,3.1c0.4,2.39,1.26,3.17,3.66,3.2c2.32,0.03,4.63-0.03,6.95-0.04c0.55,0,1.12-0.11,1.65,0.14
		c0.25,0.12,0.32,0.35,0.31,0.58c-0.01,0.24-0.14,0.48-0.41,0.49c-0.72,0.04-1.43,0.07-2.15,0.07c-20.85,0.01-41.71,0.02-62.56,0.02
		C226.03,241.61,225.75,241.53,225.47,241.45z"/>
	<path class="st931" d="M307.76,296.18c-8.22-0.01-16.45-0.03-24.67-0.02c-3.04,0-3.98,0.96-4.05,3.99
		c-0.02,0.72-0.04,1.44,0.04,2.15c0.17,1.58,0.67,2.97,2.36,3.55c3.97,0.43,7.96,0.06,11.93,0.21c0.81,0.03,1.73-0.36,2.44,0.37
		c-0.17,0.71-0.72,0.55-1.14,0.55c-21.7,0.01-43.39,0.01-65.09,0.01c-0.33,0-0.63-0.05-0.92-0.21c-2.92-0.12-4.01-1.1-4.24-4
		c-0.11-1.35-0.11-2.72-0.01-4.07c0.2-2.68,1.48-3.77,4.16-3.9c3.2-0.16,6.36,0.41,9.56,0.4c8.71-0.05,17.42,0.04,26.13-0.07
		c2.78-0.04,5.56-0.14,8.34,0.05c2.65,0.19,37.93-0.68,38.27-0.46c0.41,0.27,0.57,0.38,0.4,0.94
		C311.13,296.16,308.68,295.77,307.76,296.18z"/>
	<path class="st931" d="M292.88,256.04c-0.2,1.03-1.03,0.82-1.71,0.82c-2.71,0.02-5.43-0.01-8.14,0.01
		c-2.34,0.02-3.3,0.82-3.82,3.08c-0.25,1.1-0.23,2.23-0.09,3.33c0.29,2.18,2.02,3.62,4.28,3.64c2.71,0.02,5.43-0.02,8.14,0
		c0.67,0,1.41-0.18,2.18,0.48c-0.84,0.73-1.72,0.48-2.51,0.48c-9.9,0.01-19.79-0.01-29.69-0.02c-10.45-0.01-20.91-0.12-31.36,0.06
		c-4.08,0.07-6.13-1.75-5.76-5.9c0.04-0.47,0.01-0.96,0.01-1.44c-0.01-1.95,0.56-3.61,2.35-4.65c0.75-0.4,1.57-0.21,2.35-0.21
		c20.49-0.01,40.98-0.01,61.47,0.01C291.35,255.73,292.19,255.44,292.88,256.04z"/>
	<path class="st931" d="M342.8,253.07c-2.22,0.38-3.64-0.89-4.42-2.77c-1.32-3.17-2.74-6.26-4.97-8.92c-0.75-0.9-0.64-1.7,0.34-2.43
		c1.98-1.47,3.94-2.96,5.87-4.5c0.77-0.61,1.42-0.62,2.09,0.08c0.11,0.11,0.24,0.21,0.34,0.34c3.43,4.46,8.33,5.08,13.47,5.29
		c2.97,0.12,5.86-0.6,8.81-0.51c1.14,0.03,2.24,0.2,3.23,0.72c1.12,0.59,1.17,1.25,0.33,2.26c-2.03,2.43-4.82,3.61-7.71,4.57
		c-4.75,1.57-9.65,2.74-14.07,5.21C345.1,252.97,344.02,253.16,342.8,253.07z"/>
	<path class="st931" d="M308.27,291.93c-2.57-1.91-5.39-3.37-8.29-4.69c-0.15-0.07-0.29-0.13-0.44-0.19
		c-3.18-1.51-4.31-3.49-3.65-6.89c0.54-2.81,1.5-5.53,1.44-8.44c-0.02-0.84,0.52-1.34,1.37-1.35c2.79-0.02,5.59-0.01,8.38-0.01
		c0.78,0,1.16,0.42,1.18,1.19c0.01,0.4,0.05,0.8,0.01,1.2c-0.31,3.24,1.11,5.83,2.88,8.39c2.15,3.11,4.75,5.78,7.46,8.37
		c1.11,1.06,1.93,2.33,2.86,3.52c0.59,0.76,1.01,1.68,0.43,2.67c-0.56,0.96-1.51,1.09-2.51,1.03c-1.67-0.1-3.3-0.42-4.88-0.97
		C311.92,295.3,309.9,293.93,308.27,291.93z"/>
	<path class="st1115" d="M322.02,297.42c-0.36,2.64-0.4,4.94,0.08,7.18c-0.89,0.62-1.8,0.4-2.65,0.4c-11.89,0-23.77-0.03-35.66-0.05
		c-0.48,0-0.96-0.03-1.44-0.01c-1.26,0.05-1.92-0.68-2.19-1.79c-0.36-1.49-0.37-3.02-0.05-4.51c0.26-1.19,1.05-1.94,2.39-1.91
		c1.52,0.03,3.03,0.02,4.55,0.02c8.69,0,17.39-0.01,26.08-0.02c1.12,0,2.22,0.04,3.3,0.39
		C318.19,297.68,319.99,297.93,322.02,297.42z"/>
	<path class="st1118" d="M298.91,317.94c-5.27,0-10.54,0-15.81,0c-2.48,0-3.27-0.67-3.52-3.14c-0.08-0.79-0.09-1.61,0.04-2.38
		c0.36-2.04,1.16-2.69,3.26-2.69c10.62,0.01,21.24,0.03,31.87,0.05c0.24,0,0.48,0.02,0.72,0.01c1.13-0.06,1.64,0.4,1.37,1.57
		c-0.34,1.5-0.23,3-0.06,4.52c0.21,1.98,0.16,2.02-1.81,2.03c-5.35,0.02-10.7,0.01-16.05,0.01
		C298.91,317.93,298.91,317.93,298.91,317.94z"/>
	<path class="st258" d="M277.52,283.77c5.26-0.02,10.53-0.03,15.79-0.08c0.78-0.01,1.35,0.18,1.78,0.9c0.72,1.2,1.8,2,3.06,2.58
		c2.82,1.28,5.61,2.64,8.24,4.3c-0.23,1.22-1.24,1.1-2.06,1.1c-8.35,0.06-16.69,0.04-25.04,0.02c-1.69,0-2.62-0.84-3.12-2.39
		C275.22,287.32,275.58,285.49,277.52,283.77z"/>
	<path class="st1119" d="M287.88,278.95c-1.83,0-3.67,0.03-5.5-0.01c-1.59-0.04-2.04-0.45-2.55-1.98c-0.32-0.94-0.29-1.89-0.22-2.84
		c0.21-2.81,0.93-3.47,3.7-3.46c3.82,0,7.65,0.06,11.47,0.01c1.27-0.02,1.64,0.46,1.62,1.67c-0.04,1.95-0.69,3.75-1.15,5.6
		c-0.22,0.87-0.83,1.02-1.63,1.01C291.7,278.92,289.79,278.94,287.88,278.95C287.88,278.95,287.88,278.95,287.88,278.95z"/>
	<path class="st1120" d="M287.51,265.88c-1.52,0-3.04,0.04-4.55-0.01c-2.32-0.07-3-1.17-2.98-4.68c0.01-2.61,0.82-3.66,2.96-3.68
		c2.87-0.03,5.75,0.07,8.62,0.01c1.17-0.02,1.5,0.46,1.56,1.53c0.11,1.91,0.32,3.82,0.56,5.72c0.1,0.77-0.24,1.03-0.9,1.04
		c-1.76,0.01-3.51,0-5.27,0C287.51,265.82,287.51,265.85,287.51,265.88z"/>
	<path class="st1120" d="M322.09,257.53c-0.24,1.56-0.43,2.89-0.39,4.23c0.03,1.26,0.02,2.53,0.63,4.08c-3.47,0-6.62,0-9.77,0
		c-0.69,0-1.04-0.32-1.02-1.01c0.05-2.07,0.12-4.14,0.16-6.21c0.01-0.84,0.47-1.1,1.22-1.1
		C315.93,257.53,318.94,257.53,322.09,257.53z"/>
	<path class="st931" d="M228.66,306.79c15.95-0.02,31.9-0.03,47.85-0.05c5.5,0,11.01,0,16.51,0c0.71,0,1.41,0,2.65,0
		c-1.09-0.61-1.77-0.43-2.39-0.44c-3.19-0.02-6.38,0-9.57-0.02c-0.78,0-1.61,0.21-2.27-0.44c13.42-0.02,26.83-0.04,40.25-0.05
		c0.67,0,1.74-0.26,1.75,0.7c0.01,1-1.08,0.72-1.72,0.7c-5.02-0.13-10.05,0.24-15.07-0.21c-1.33-0.12-2.7,0.19-4.05,0.19
		c-23.72,0.01-47.44,0.01-71.15-0.01C230.5,307.19,229.5,307.47,228.66,306.79z"/>
	<path class="st919" d="M311.62,225.28c-0.43-2.69-0.4-5.4-0.44-8.12c-0.02-1.2-0.12-2.38-0.29-3.57
		c-0.96-6.91-5.67-10.16-11.74-12.12c-1.17-0.38-2.18,0.18-3.2,0.64c-5.74,2.6-11.46,5.24-17.23,7.76c-2.92,1.28-5.95,2.3-8.9,3.5
		c-0.67,0.27-1.68,0.19-1.8,1.29c0.01,0.16,0.02,0.31,0.03,0.47c-1.51,0.59-3.16-0.33-4.65,0.46c-0.49,0-0.87-0.28-1.26-0.5
		c11.28-3.51,21.96-8.46,32.61-13.48c2.75-1.3,5.13-1.29,7.66,0.14c0.9,0.51,1.84,0.94,2.74,1.47c3.1,1.82,5.15,4.45,6.04,7.96
		c0.57,2.24,1.06,4.51,0.93,6.83c-0.08,1.44,0.36,2.54,1.35,3.64c1.43,1.58,3.04,3.05,4.04,4.99c-0.4,0-0.79-0.01-1.19-0.01
		c-1.43-0.77-2.21-2.25-3.45-3.27c-0.27,0.66-0.05,1.48-0.76,1.92C311.94,225.28,311.78,225.28,311.62,225.28z"/>
	<path class="st1121" d="M309.22,270.78c2.5,0,5.01,0,7.8,0c-0.84,2.88-0.52,5.52-0.15,8.16c-1.43,0.01-2.86,0.03-4.29,0.02
		c-2-0.02-2.22-0.19-2.95-2.06C308.87,274.9,309.14,272.83,309.22,270.78z"/>
	<path class="st1120" d="M319.21,252.67c-2.24,0-4.3,0-6.36,0c-0.61,0-0.82-0.34-0.81-0.91c0.05-2.07,0.1-4.14,0.13-6.21
		c0.01-0.68,0.3-1.04,1-1.02c1.97,0.04,3.96-0.21,6.02,0.13C318.79,247.26,318.62,249.78,319.21,252.67z"/>
	<path class="st919" d="M277.52,283.77c-1.61,1.81-1.53,3.91-1,6.06c0.42,1.73,0.82,2.04,2.63,2.04c5.16,0.01,10.32-0.02,15.49-0.02
		c3.34,0,6.67,0.02,10.01,0c0.59,0,1.29,0.28,1.75-0.38c0.48,0.45,0.95,0.89,1.42,1.33c-0.53,0.75-1.33,0.81-2.14,0.76
		c-8.66-0.51-17.32-0.1-25.98-0.21c-1.16-0.02-2.22-0.1-3.02-1.05c-1.43-2.16-1.79-4.49-1.03-6.97c0.25-0.82,0.55-1.66,1.49-1.99
		C277.28,283.49,277.4,283.63,277.52,283.77z"/>
	<path class="st1122" d="M316.87,239.4c-5.84,0.55-4.57,0.4-4.58-3.85c0-0.87,0.16-1.75,0.13-2.61c-0.04-1.09,0.51-1.4,1.47-1.32
		c0.94,0.08,2.07-0.38,2.78,0.24c0.73,0.64-0.11,1.61-0.13,2.45C316.49,235.96,316.44,237.62,316.87,239.4z"/>
	<path class="st931" d="M276.69,292.3c0.89,0.36,1.8,0.55,2.78,0.55c9.45-0.03,18.91-0.03,28.36-0.05c0.15,0.05,0.3,0.08,0.46,0.09
		c0.31,0.61,0.54,1.02-0.55,1.1c-0.71,0.05-10.15-0.1-14.19-0.14c-7.23-0.08-14.47-0.04-21.7-0.05c1.29-0.9,2.75-0.33,4.12-0.43
		C276.78,293.31,276.86,292.94,276.69,292.3z"/>
	<path class="st931" d="M221.01,254.54c20.03-0.01,40.06-0.02,60.08-0.03c3.19,0,6.38,0.01,9.57,0c0.67,0,1.52,0.25,1.67-0.84
		c0.15-0.31,0.34-0.35,0.58-0.09c-0.01,0.47-0.01,0.94-0.02,1.41c-23.29,0.01-46.58,0.02-69.87,0.02
		C222.33,255,221.58,255.15,221.01,254.54z"/>
	<path class="st931" d="M292.88,256.04c-5.03-0.04-10.06-0.1-15.09-0.1c-17.01-0.01-34.02,0-51.03,0c0.65-0.67,1.49-0.46,2.26-0.46
		c20.56-0.01,41.12-0.01,61.68,0C291.45,255.48,292.33,255.19,292.88,256.04z"/>
	<path class="st931" d="M311.78,267.46c0.63-0.81,1.34-0.91,2.05-0.91c2.62-0.02,5.24-0.02,7.86-0.02c0.47,0,0.97-0.03,1.36,0.3
		c0.16,0.13,0.29,0.36,0.32,0.57c0.05,0.27-0.21,0.4-0.43,0.47C322.15,268.14,312.95,267.84,311.78,267.46z"/>
	<path class="st931" d="M317.93,256.88c-1.6,0-3.19,0.01-4.79-0.01c-0.41,0-0.84-0.13-0.88-0.62c-0.03-0.48,0.37-0.69,0.79-0.7
		c3.11-0.02,6.22-0.03,9.33-0.01c0.48,0,1.03,0.2,0.98,0.8c-0.05,0.65-0.68,0.54-1.13,0.55c-1.44,0.02-2.87,0.01-4.31,0.01
		C317.93,256.9,317.93,256.89,317.93,256.88z"/>
	<path class="st931" d="M316.43,254.87c-1.26,0-2.53,0.01-3.79-0.01c-0.35-0.01-0.63-0.28-0.62-0.6c0.01-0.32,0.28-0.58,0.63-0.6
		c2.53-0.15,5.06-0.15,7.58,0.01c0.35,0.02,0.62,0.29,0.62,0.61c0,0.32-0.28,0.6-0.63,0.6c-1.26,0.02-2.53,0.01-3.79,0.01
		C316.43,254.88,316.43,254.88,316.43,254.87z"/>
	<path class="st1123" d="M312.11,225.29c0-1.09,0-2.17,0-3.31c1.53,0.86,3.25,2.78,4.21,4.66c-0.92,0-1.85-0.04-2.77,0.02
		C312.53,226.72,312.19,226.16,312.11,225.29z"/>
	<path class="st931" d="M316.63,243.9c-1.11,0-2.23,0.02-3.34-0.01c-0.41-0.01-0.82-0.2-0.82-0.68c0-0.33,0.31-0.56,0.66-0.58
		c2.38-0.13,4.77-0.19,7.15,0.01c0.33,0.03,0.61,0.3,0.58,0.63c-0.02,0.33-0.31,0.58-0.65,0.58c-1.19,0.02-2.39,0.01-3.58,0.01
		C316.63,243.88,316.63,243.89,316.63,243.9z"/>
	<path class="st1124" d="M319.26,283.9c-0.19,1.46-0.36,2.7-0.56,4.25c-1.63-1.22-2.67-2.65-4-4.25
		C316.32,283.9,317.68,283.9,319.26,283.9z"/>
	<path class="st931" d="M313.86,282.26c2.12-0.61,4.22-0.43,6.32-0.32c0.34,0.02,0.64,0.27,0.65,0.59c0.01,0.32-0.28,0.6-0.61,0.61
		C318.06,283.21,315.84,283.69,313.86,282.26z"/>
	<path class="st1125" d="M318.36,268.88c0.11,1.15-0.82,0.91-1.44,1.08c-1.5-0.02-3.01-0.03-4.51-0.07
		c-0.45-0.01-1.05,0.06-1.03-0.63c0.01-0.43,0.43-0.67,0.85-0.65C314.27,268.67,316.34,268.25,318.36,268.88z"/>
	<path class="st1126" d="M318.71,280.27c-0.08,0.14-0.13,0.36-0.22,0.39c-1.96,0.43-3.96,0.22-5.94,0.2c-0.43,0-0.81-0.36-0.85-0.72
		c-0.06-0.5,0.44-0.58,0.84-0.57c1.6,0.01,3.19-0.01,4.79,0.06C317.82,279.65,318.49,279.56,318.71,280.27z"/>
	<path class="st1127" d="M315.38,241.59c-0.87,0-1.74,0.02-2.6-0.01c-0.2-0.01-0.45-0.08-0.49-0.4c-0.04-0.38,0.13-0.69,0.44-0.72
		c1.72-0.18,3.46-0.24,5.17,0.08c0.17,0.03,0.38,0.31,0.41,0.5c0.06,0.36-0.21,0.57-0.56,0.58c-0.79,0.02-1.58,0.01-2.37,0.01
		C315.38,241.61,315.38,241.6,315.38,241.59z"/>
	<path class="st1128" d="M315.67,229.61c0.8,0,1.6-0.03,2.39,0.02c0.16,0.01,0.38,0.28,0.45,0.47c0.13,0.36-0.16,0.73-0.4,0.75
		c-1.74,0.16-3.5,0.22-5.23-0.05c-0.15-0.02-0.33-0.34-0.36-0.54c-0.06-0.35,0.17-0.63,0.52-0.65
		C313.91,229.59,314.79,229.61,315.67,229.61C315.67,229.61,315.67,229.61,315.67,229.61z"/>
	<path class="st919" d="M277.54,283.24c0.76-0.65,1.67-0.39,2.52-0.4c4.77-0.06,9.53-0.08,14.3-0.12c-0.41,0.67-1.09,0.57-1.72,0.57
		C287.6,283.27,282.57,283.25,277.54,283.24z"/>
	<path class="st1129" d="M254.04,104.55c-3.1-0.27-4.54-2.42-3.82-5.83c0.19-0.25,0.36-0.52,0.57-0.75
		c1.53-1.63,3.03-1.51,4.26,0.33c0.09,0.13,0.15,0.28,0.23,0.41c1.03,1.78,1.03,1.78,2.16-0.01c0.61,0.19,1.2,0.43,1.82,0.57
		c1.74,0.39,3.13,0.77,3.25,3.18c0.09,1.9,1.77,3.14,3.77,3.49c1.89,0.33,3.8-0.69,4.86-2.39c0.39-0.63,0.35-1.56,1.32-1.97
		c0.67,1.09,0.84,2.26,1.02,3.39c0.41,2.52,0.12,2.94-2.22,3.61c2.34,1.28,3.17,0.48,3.27-3.26c0.65,0.51,1.24,1,1.85,1.46
		c0.65,0.49,1.46,0.57,2.44,0.82c-0.43,3.04-1.44,5.8-3.41,8.18c-2.45,2.96-5.54,3.8-9.23,2.81c-2.22-0.6-4.05-1.81-5.8-3.22
		c-0.51-0.41-0.82-1.2-1.64-1.12c-0.35,0.37-0.11,0.64,0.1,0.84c1.92,1.84,4,3.54,6.6,4.15c1.67,0.39,1.75,1.24,1.57,2.52
		c-0.7,2-2.27,2.75-4.24,2.92c-3.55,0.31-6.56-0.87-9.23-3.17c-0.78-0.67-0.91-1.35-0.71-2.31c0.55-2.65,1.01-5.32,1.49-7.99
		c0.33-1.81,0.32-3.65,0.29-5.48C254.62,105.24,254.65,104.72,254.04,104.55z"/>
	<path class="st1130" d="M279.52,91.97c0.44,0.09,1.01,0,1.02,0.7c0.01,0.72,0.04,1.44-0.02,2.15c-0.07,0.86,0.18,1.86-0.34,2.55
		c-0.52,0.7-1.49,0.19-2.25,0.3c-1.44,0.21-2.52,0.94-3.21,2.21c-0.31,0.56-0.43,1.21-1.34,0.94c-0.74-0.21-1.52-0.1-1.8-1.17
		c-0.48-1.8-1.58-3.13-3.54-3.45c-1.97-0.32-3.69,0.24-4.77,1.97c-0.6,0.95-1.19,1.11-2.16,0.72c-0.73-0.3-1.51-0.53-2.29-0.66
		c-0.91-0.15-0.8-0.83-0.9-1.43c0.38-1.57,0.91-2.98,2.49-3.86c1.36-0.75,1.52-2.34,1.93-3.96c1.29,0.49,2.45,0.94,3.61,1.37
		c3.24,1.21,6.57,1.96,10.04,2.05C277.18,92.43,278.36,92.32,279.52,91.97z"/>
	<path class="st931" d="M278.56,374.77c-0.63,0.06-0.93,0.51-1.27,0.98c-1.56,2.19-1.65,6.41-0.18,8.63
		c0.62,0.94,1.47,1.44,2.59,1.46c1.2,0.02,2.4,0.04,3.59,0.04c12.94-0.01,25.88-0.01,38.81-0.02c0.64,0,1.28,0,1.92,0.03
		c0.4,0.02,0.86,0.1,0.89,0.6c0.04,0.66-0.51,0.72-0.99,0.75c-0.56,0.03-1.12,0.02-1.68,0.02c-32.9-0.01-65.81-0.01-98.71-0.02
		c-2.08,0-4.15,0.05-6.23,0.01c-2.7-0.05-4.27-1.57-4.52-4.22c-0.19-1.98-0.51-3.92-0.07-5.94c0.45-2.03,1.46-3.31,3.5-3.74
		c3.48-0.25,6.98-0.56,10.46-0.59c16.29-0.14,32.58-0.07,48.88-0.06c1.03,0,2.08-0.12,3.08,0.26
		C279.54,373.6,279.42,374.2,278.56,374.77z"/>
	<path class="st931" d="M221.01,372c-1.76-1.08-2.35-2.73-2.32-4.69c0.02-1.2-0.06-2.4,0.06-3.59c0.24-2.39,1.87-3.74,4.23-3.56
		c3.91,0.31,7.81,0.17,11.73,0c3.27-0.14,6.54-0.05,9.82-0.05c13.91-0.01,27.81-0.19,41.71,0.05c9.43,0.16,18.85,0.16,28.28,0.2
		c1.44,0,2.87,0.07,4.3-0.21c0.61-0.12,1.28-0.19,1.69,0.6c-0.77,0.9-1.8,0.55-2.69,0.55c-11.75,0.03-23.5,0.01-35.24,0.01
		c-1.2,0-2.4-0.02-3.6,0.03c-1.92,0.09-2.7,0.71-3.33,2.51c-0.66,1.91-0.42,3.78,0.28,5.62c0.41,1.07,1.17,1.68,2.37,1.65
		c1.2-0.02,2.4,0.01,3.6,0c8.47-0.02,16.94,0,25.41-0.06c4.48-0.03,8.94,0.25,13.4,0.44c0.34,0.57-0.19,0.67-0.48,0.9l-0.02-0.01
		c-0.96,1.03-2.22,0.73-3.38,0.73c-11.72,0.02-23.45,0.2-35.17-0.03c-18.34-0.35-36.68-0.04-55.02-0.2
		c-1.09-0.01-2.25,0.31-3.22-0.5c-0.3,0-0.6-0.01-0.9-0.01C222.07,372.05,221.45,372.35,221.01,372z"/>
	<path class="st1115" d="M272.2,359.13c-14.62,0-29.25,0-43.87,0c-3.4,0-4.72-1.29-4.82-4.74c-0.03-1.04-0.07-2.08-0.01-3.11
		c0.19-3.12,2.24-4.37,4.61-4.34c10.95,0.11,21.9,0.05,32.84,0.05c18.14,0,36.28,0,54.42,0c0.8,0,1.6,0.03,2.39,0.08
		c0.23,0.02,0.48,0.2,0.43,0.46c-0.04,0.2-0.2,0.43-0.37,0.54c-0.65,0.42-1.4,0.21-2.1,0.21c-10.79,0.01-21.58,0.01-32.36,0
		c-0.56,0-1.12,0.01-1.68,0c-1.19-0.01-2.03,0.62-2.41,1.65c-0.8,2.18-0.81,4.38,0.24,6.51c0.45,0.93,1.25,1.44,2.29,1.49
		c0.56,0.03,1.12,0.03,1.68,0.03c10.79,0,21.58,0,32.36,0c0.72,0,1.44,0.03,2.15,0.12c0.18,0.02,0.37,0.24,0.39,0.53
		c0.02,0.33-0.22,0.46-0.4,0.48c-0.71,0.06-1.43,0.08-2.15,0.08c-14.54,0-29.09,0-43.63,0C272.2,359.17,272.2,359.15,272.2,359.13z"
		/>
	<path class="st931" d="M226.37,345.99c-2.52-2.63-2.25-5.85-1.72-9.02c0.37-2.21,1.4-2.88,3.7-2.88c10.23-0.01,20.45,0,30.68,0.01
		c20.61,0.01,41.22,0.03,61.83,0.06c0.8,0,1.68-0.22,2.66,0.44c-1.09,0.68-2.05,0.44-2.94,0.44c-12.14,0.01-24.29-0.01-36.43,0.01
		c-0.93,0-1.93-0.28-2.76,0.43c-0.15,0.01-0.29,0.04-0.43,0.07c-0.69,1.53-1.33,3.04-1.24,4.8c0.15,3.02,1.06,4.03,4.07,4.04
		c10.38,0.03,20.76,0,31.15,0.02c1.17,0,2.42-0.25,3.42,0.68c1.34,0.02,2.67,0.04,4.01,0.05c0.59,0,1.11,0.09,1.22,0.81
		c-0.59,0.62-1.36,0.34-2.04,0.34c-30.97,0.02-61.94,0.01-92.91,0.01c-0.63,0-1.28,0.15-1.87-0.23
		C226.63,346.04,226.5,346.02,226.37,345.99z"/>
	<path class="st1115" d="M323.41,384.54c-0.67,0.48-1.33,0.31-1.95,0.31c-13.64,0.01-27.28,0.01-40.92,0
		c-2.37,0-3.14-0.66-3.37-3.02c-0.11-1.11-0.13-2.24-0.04-3.34c0.19-2.28,1.05-3.03,3.4-3.04c6.94-0.02,13.88-0.01,20.82-0.01
		c6.7,0,13.4-0.01,20.1-0.01c1.86,0,1.87,0.03,1.74,1.82C323.02,379.71,323.01,382.16,323.41,384.54z"/>
	<path class="st1115" d="M319.33,361.96c-0.51,2.86-0.75,5.39-0.12,7.89c-0.73,0.64-1.57,0.4-2.34,0.4
		c-12.38,0.03-24.77,0.05-37.15,0.06c-2.46,0-2.9-0.34-3.33-2.73c-0.12-0.7-0.17-1.43-0.12-2.14c0.18-2.71,1.04-3.49,3.73-3.49
		c12.06,0,24.13,0.01,36.19,0.01C317.14,361.96,318.09,361.96,319.33,361.96z"/>
	<path class="st1115" d="M280.98,336.27c0.67-0.31,1.39-0.33,2.11-0.33c12.45,0.01,24.91,0.01,37.36,0.02c0.55,0,1.12-0.1,1.69,0.31
		c-0.61,2.46-0.57,4.98-0.02,7.56c-1.25,0.58-2.55,0.08-3.77,0.37c-0.86,0.59-1.84,0.41-2.78,0.41
		c-10.58,0.01-21.16-0.02-31.74,0.04c-1.84,0.01-3.33-0.3-4.1-2.12C278.94,340.66,279.59,337.5,280.98,336.27z"/>
	<path class="st1131" d="M316.97,349.22c-0.63,2.56-0.34,5.09-0.12,7.57c-0.69,0.54-1.43,0.34-2.13,0.34
		c-10.45,0.01-20.91,0-31.36-0.01c-2.88,0-3.66-0.75-3.79-3.63c-0.03-0.72-0.06-1.45,0.04-2.15c0.25-1.65,1.06-2.37,2.72-2.37
		c11.17,0.01,22.34,0.03,33.52,0.06C316.16,349.03,316.47,349.13,316.97,349.22z"/>
	<path class="st919" d="M223.42,372.41c10.38-0.02,20.77-0.04,31.15-0.04c21.17-0.01,42.33-0.02,63.5-0.03
		c0.72,0,1.44,0.04,2.15,0.07c0.68,0.75,1.59,0.44,2.41,0.52c0.82,0.08,1.73-0.26,2.42,0.47c-0.74,0.8-1.71,0.73-2.67,0.73
		c-13.56,0-27.12,0-40.67,0c-0.96,0-1.93,0.08-2.69-0.69c-17.98-0.01-35.95-0.02-53.93-0.03c-2.96,0-5.91-0.04-8.87-0.06
		c1.46-0.82,3.04-0.24,4.55-0.42C221.67,372.81,222.66,373.21,223.42,372.41z"/>
	<path class="st931" d="M279.02,373.43c10.73-0.01,21.47-0.03,32.2-0.04c4.61,0,9.22,0,13.84-0.01c0.04,0.69-0.05,1.31-0.92,1.37
		c-0.55,0.04-1.11,0.04-1.67,0.04c-14.64,0-29.27-0.01-43.91-0.02C278.71,374.33,278.87,373.88,279.02,373.43z"/>
	<path class="st919" d="M226.76,346.07c31.08-0.01,62.15-0.02,93.23-0.03c1.2,0,2.39-0.05,3.59-0.08c-0.71,0.98-1.76,0.57-2.65,0.57
		c-13.16,0.03-26.33,0.02-39.49,0.02c-17.31,0-34.62,0-51.94-0.02C228.58,346.54,227.57,346.85,226.76,346.07z"/>
	<path class="st919" d="M280.98,336.27c-1.49,1.8-1.15,3.9-0.81,5.93c0.2,1.19,1.08,1.92,2.39,1.91c0.56,0,1.11,0,1.67,0
		c10.74,0,21.48,0.01,32.23,0.01c0.63,0,1.27,0.06,1.9,0.09c0,0.29,0,0.59,0,0.88c-11.81,0.02-23.62,0.02-35.44,0.06
		c-1.21,0-2.17-0.3-2.94-1.25c-1.78-2.18-1.28-6.55,0.99-8.36C280.97,335.8,280.97,336.04,280.98,336.27z"/>
	<path class="st1132" d="M320.24,372.41c0.16-0.3,0.32-0.6,0.48-0.9C321.38,372.25,320.88,372.37,320.24,372.41z"/>
	<path class="st1132" d="M221.01,372c0.54,0,1.07,0.02,1.51,0.39C221.96,372.47,221.41,372.52,221.01,372z"/>
	<path class="st931" d="M287.57,139.07c-0.01,0.1-0.01,0.19,0.01,0.28c-2.62,0.52-5.06-0.5-7.53-1.02
		c-1.74-0.36-3.29-0.62-4.68,0.75c-0.16,0.16-0.42,0.34-0.62,0.32c-1.91-0.19-2.11,1.18-2.47,2.53c-1.28,4.86-2.64,9.7-3.93,14.55
		c-0.42,1.57-1.14,2.68-2.83,3.18c-1.38,0.41-2.48,1.41-3.57,2.36c-0.96,0.84-1.9,1.74-2.99,2.38c-0.94,0.55-2.02,1.47-3.19,0.15
		c-0.37-0.41-1.07-0.23-1.62-0.22c-5.19,0.08-10.36,0.43-15.53,0.85c-0.95,0.08-1.9,0.24-3-0.15c1.03-5.03,3.54-9.62,4.68-14.71
		c-1.04,0.02-0.99,0.7-1.16,1.16c-1.34,3.76-2.58,7.55-4.01,11.28c-1.21,3.17-0.45,2.94-4.17,3.02c-0.99,0.02-1.98,0.06-3.03,0.09
		c0.24,0.99,0.8,0.84,1.22,0.85c4.24,0.09,8.44-0.36,12.65-0.73c3.18-0.28,6.39-0.1,9.55-0.64c0.47-0.08,0.96-0.05,1.43-0.1
		c2.47-0.3,2.48-0.31,2.96,1.99c0.52,2.5,1.04,4.99,1.53,7.5c0.36,1.84,0.18,2.12-1.59,2.9c-8.23,3.62-16.85,5.96-25.74,7.17
		c-4.06,0.55-8.12,0.11-11.74-2.28c-2.04-1.35-2.98-3.26-3.42-5.51c-0.58-2.94-0.29-5.9,0.28-8.79c1.74-8.81,4.72-17.21,8.48-25.35
		c1.44-3.12,2.91-6.21,4.64-9.18c2.34-4,5.56-6.94,9.83-8.76c3.47-1.47,7.05-2.56,10.68-3.52c1.78-0.47,3.26-0.28,4.78,1.17
		c2.74,2.62,6.24,3.43,10,2.98c1.3-0.15,2.51-0.66,3.38-1.64c0.84-0.93,1.77-0.94,2.82-0.63c6.78,2,12.31,5.61,15.69,12.04
		C286.06,136.63,286.84,137.84,287.57,139.07z"/>
	<path class="st931" d="M279.3,164.08c0.17-0.33,0.37-0.58,0.45-0.87c0.44-1.51,0.03-2.23-1.5-2.15c-1.82,0.09-3.63,0.46-5.45,0.67
		c-1.19,0.13-2.38,0.2-3.57,0.28c-0.98,0.06-1.27-0.41-1.02-1.34c0.34-1.23,0.61-2.48,0.95-3.7c1.35-4.83,2.72-9.66,4.09-14.49
		c0.52-1.82,0.53-1.83,2.42-1.31c7.84,2.12,15.69,4.24,23.53,6.38c2.08,0.57,2.12,0.68,1.5,2.82c-2.65,9.1-5.32,18.2-7.94,27.31
		c-0.37,1.28-0.87,2.01-2.37,2.18c-3.32,0.38-6.61,0.98-9.91,1.54c-0.75,0.13-1.42-0.01-2.11-0.2c-4.3-1.18-8.61-2.33-12.91-3.54
		c-0.61-0.17-1.56-0.11-1.51-1.17c0.05-1.07,0.9-1.21,1.69-1.32c3.08-0.42,6.15-0.87,9.18-1.56c1.45-0.33,2.82-0.67,3.3-2.34
		c0.06-0.21,0.24-0.49,0.42-0.54c1.81-0.54,2.1-2.25,2.82-3.63c0.92-1.77,0.68-2.26-1.33-2.77
		C279.81,164.27,279.6,164.19,279.3,164.08z"/>
	<path class="st931" d="M275.52,182.1c-1.87,0.85-3.7,1.01-5.47,1.34c-5.82,1.09-11.53,2.6-17.14,4.45
		c-4.13,1.36-7.73,3.8-11.2,6.39c-3.13,2.34-6.4,4.5-9.2,7.27c-1.17,1.16-1.8,0.94-2.42-0.6c-0.76-1.85-0.57-3.79-0.33-5.68
		c0.21-1.62,0.07-3.17-0.27-4.74c-0.08-0.39-0.2-0.78-0.24-1.17c-0.33-3.09,0.05-3.49,3.15-3.92c7.08-0.97,13.86-3.05,20.51-5.6
		c1.27-0.49,2.54-0.95,3.81-1.44c0.91-0.35,1.81-0.72,1.76-1.96c-0.02-0.42,0.16-0.81,0.62-0.9c0.94-0.18,1.88-0.37,2.83-0.45
		c0.65-0.06,0.96,0.27,0.98,1.01c0.07,1.95,0.1,2.02,2.01,2.47c2.87,0.69,5.57,1.96,8.51,2.42
		C274.09,181.09,274.84,181.26,275.52,182.1z"/>
	<path class="st931" d="M323.15,138.55c0.5,0.4,0.23,0.85,0.09,1.3c-1.51,4.96-3.03,9.91-4.51,14.88c-0.27,0.91-0.77,1.54-1.65,1.91
		c-0.74,0.31-1.44,0.69-2.18,0.99c-0.62,0.25-1.16,0.58-1.31,1.27c-0.52,2.52-1.78,4.9-1.37,7.62c0.12,0.78,0.17,1.48,0.97,1.7
		c1.12,0.3,0.95,0.96,0.8,1.83c-0.51,2.98-1.66,5.38-4.78,6.51c-1.48,0.54-2.84,1.47-4.14,2.38c-0.93,0.65-1.88,0.79-2.93,0.74
		c-0.21-0.1-0.42-0.28-0.64-0.3c-1.36-0.1-1.49-0.83-1.16-1.97c0.93-3.21,1.79-6.44,2.7-9.66c1.7-6.05,3.49-12.09,5.09-18.17
		c0.4-1.53,1.08-2.55,2.41-3.31c3.26-1.85,6.48-3.75,9.72-5.64C321.3,140.04,322.41,139.55,323.15,138.55z"/>
	<path class="st1130" d="M269.92,171.51c2.48,0.54,4.7-0.73,7.08-0.31c-0.25,1.08-1.1,1.21-1.83,1.35
		c-4.14,0.79-8.24,1.87-12.52,1.59c-1.1-0.07-2.23,0.13-3.33,0.31c-0.93,0.16-1.29-0.18-1.45-1.06c-0.37-2.04-0.8-4.06-1.24-6.09
		c-0.15-0.67,0.09-1.13,0.71-1.29c2.44-0.62,4.13-2.34,5.9-3.95c1.08-0.97,2.3-1.67,3.7-2.03c0.12,0.2,0.27,0.35,0.24,0.44
		c-0.74,2.24-0.47,2.67,1.84,2.44c2.54-0.25,5.06-0.65,7.59-0.98c0.24-0.03,0.47-0.07,0.71-0.11c0.62-0.09,1.46-0.35,1.6,0.48
		c0.14,0.79-0.76,0.91-1.34,1.07c-1.92,0.52-3.86,0.99-5.78,1.49c-0.58,0.15-1.32,0.02-1.66,1.06c2.38-0.23,4.65-0.45,6.91-0.68
		c0.64-0.06,1.27-0.21,1.9-0.19c0.72,0.02,1.8-0.41,1.9,0.78c0.08,0.98-0.9,0.93-1.59,1.03c-2.13,0.3-4.26,0.6-6.4,0.87
		c-0.83,0.11-1.7,0.06-2.69,0.84c2.74,0.39,5.06-0.31,7.4-0.41c0.4-0.02,0.79-0.13,1.18-0.19c0.32-0.05,0.65-0.08,0.79,0.3
		c0.17,0.45-0.07,0.83-0.43,0.99c-0.72,0.32-1.48,0.62-2.25,0.77c-1.64,0.31-3.31,0.5-4.96,0.77
		C271.32,170.9,270.62,170.71,269.92,171.51z"/>
	<path class="st931" d="M293.68,179.12c-0.13-1.04,0.24-1.93,0.5-2.82c2.21-7.64,4.43-15.28,6.65-22.92
		c0.35-1.22,0.76-2.43,1.03-3.67c0.25-1.16,0.93-1.49,2.03-1.53c3.77-0.17,3.87-0.07,2.75,3.6c-2.37,7.76-4.38,15.62-6.61,23.42
		c-1.4,4.9-0.43,3.8-5.4,4.09C294.34,179.3,294.03,179.18,293.68,179.12z"/>
	<path class="st1133" d="M285.17,139.97c2.23,0.48,4.47,0.93,6.69,1.46c3.69,0.88,7.4,1.76,10.61,3.93c0.81,0.54,1.89,0.93,1.9,2.19
		c-0.95-0.08-1.9-0.03-2.85-0.3c-8.21-2.34-16.43-4.64-24.65-6.96c-0.21-0.06-0.4-0.2-0.7-0.36c0.75-1.15,1.69-1.27,2.88-1
		C281.07,139.39,283.07,139.98,285.17,139.97z"/>
	<path class="st1134" d="M305.51,147.53c-0.38-0.8,0.17-1.37,0.53-1.96c1.37-2.23,3.31-3.84,5.61-5.03c2.4-1.24,4.95-2.13,7.46-3.13
		c1.37-0.54,2.29-0.25,2.92,1.05c-4.48,2.65-8.97,5.28-13.45,7.95C307.63,146.98,306.65,147.45,305.51,147.53z"/>
	<path class="st931" d="M320.71,321.67c-1.19,0.59-2.14,0.4-3.06,0.4c-12.39,0.01-24.78,0-37.16,0.01c-4.35,0-6.01,2.11-5.13,6.42
		c0.56,2.76,1.59,3.64,4.43,3.65c12.63,0.02,25.26,0.02,37.88,0.05c0.86,0,1.75-0.18,2.71,0.22c-0.65,0.94-1.59,0.62-2.38,0.63
		c-7.75,0.04-15.51,0.05-23.26,0.05c-23.42,0-46.84-0.01-70.25-0.01c-0.72,0-1.45,0.04-2.16-0.04c-1.91-0.22-3.22-1.56-3.31-3.48
		c-0.08-1.83-0.07-3.68,0.03-5.51c0.11-1.89,1.15-2.85,3.1-2.93c1.76-0.07,3.52-0.03,5.27-0.03c30.13,0.01,60.26,0.03,90.39,0.05
		C318.68,321.16,319.58,320.94,320.71,321.67z"/>
	<path class="st1129" d="M319.26,323.26c-0.33,2.49-0.82,5-0.04,7.43c-0.51,0.61-1.1,0.4-1.62,0.4
		c-12.44,0.01-24.89,0.01-37.33,0.01c-1.33,0-2.9,0.33-3.5-1.32c-0.75-2.07-0.94-4.22,0.35-6.2c0.54-0.83,1.5-0.81,2.38-0.81
		c3.03,0.01,6.06,0.03,9.09,0.04c9.09,0.01,18.19,0.02,27.28,0.04C316.98,322.86,318.11,322.73,319.26,323.26z"/>
	<path class="st931" d="M225.81,228.13c-1.95-2.92-1.7-6.09-0.78-9.19c0.4-1.35,1.59-2.32,3.29-2.31c4.95,0.04,9.91,0.01,14.86,0.02
		c0.55,0,1.12,0.08,1.65,0.23c4.42,1.21,8.86,0.85,13.28,0.07c1.27-0.22,2.53-0.34,3.8-0.34c3.12,0,6.23,0.08,9.35-0.02
		c3.07-0.09,6,0.54,9.14,1.29c-0.97,1.69-1.5,3.38-1.37,5.26c0.07,1.07,0.37,2.03,0.87,2.95c0.58,1.07,1.41,1.64,2.7,1.62
		c2.48-0.05,4.95-0.01,7.43,0c-0.11,1.09-0.95,0.89-1.63,0.9c-2.87,0.04-5.75,0.07-8.62,0.07c-17,0-34.01,0-51.01-0.03
		C227.77,228.65,226.67,228.98,225.81,228.13z"/>
	<path class="st1115" d="M278.05,244.42c3.99,0.02,7.98,0.04,11.98,0.07c1.8,0.01,1.79,0.03,1.92,1.83c0.11,1.43,0.25,2.86,0.4,4.29
		c0.21,2.01,0.22,2.02-1.74,2.03c-4.31,0.03-8.63,0.04-12.94,0.07C274.78,250.68,275,245.95,278.05,244.42z"/>
	<path class="st1135" d="M291.32,239.58c-3.37,0-6.62,0.02-9.87-0.02c-0.83-0.01-1.22-0.67-1.48-1.38
		c-0.62-1.72-0.56-3.45,0.06-5.16c0.37-1.03,1.17-1.44,2.25-1.42c2.4,0.03,4.79,0.05,7.19,0.03c0.92-0.01,1.29,0.38,1.35,1.26
		C290.95,235.03,291.13,237.17,291.32,239.58z"/>
	<path class="st258" d="M290.06,226.68c-2.37-0.01-4.74,0-7.1-0.03c-1.84-0.02-2.51-0.46-2.78-2.19c-0.31-1.94-0.6-3.94,0.82-5.65
		c2.86-0.86,5.51,0.42,8.24,0.84c0.43,0.06,0.68,0.42,0.69,0.86C290.01,222.56,290.43,224.61,290.06,226.68z"/>
	<path class="st919" d="M278.05,244.42c-2.45,2.06-2.6,5.36-0.38,8.29c0.69,0.58,1.52,0.35,2.29,0.35c3.58,0.02,7.15,0,10.73,0.02
		c0.77,0,1.61-0.24,2.23,0.49c-0.19,0.03-0.39,0.06-0.58,0.09c-4.29-0.02-8.57-0.04-12.86-0.08c-2.61-0.02-3.3-0.58-3.97-3.12
		c-0.42-1.59-0.37-3.16,0.27-4.66c0.41-0.97,1.07-1.78,2.28-1.82C278.07,244.14,278.06,244.28,278.05,244.42z"/>
	<path class="st1136" d="M315.29,162.48c-0.62,0-0.86,0.01-1.09,0c-0.34-0.01-0.62-0.12-0.66-0.51c-0.03-0.34,0.11-0.66,0.4-0.8
		c1.66-0.78,3.5-0.96,5.26-1.43c0.37-0.1,0.56,0.31,0.49,0.63c-0.17,0.82-0.58,1.49-1.48,1.65
		C317.12,162.22,316.02,162.37,315.29,162.48z"/>
	<path class="st1137" d="M315.7,159.72c-0.89,0.13-1.19,0.02-1.24-0.35c-0.03-0.2,0.03-0.52,0.17-0.63
		c1.33-1.02,2.88-1.63,4.48-2.07c0.44-0.12,0.66,0.3,0.67,0.75c0.01,0.7-0.27,1.31-0.93,1.51
		C317.64,159.31,316.4,159.56,315.7,159.72z"/>
	<path class="st1138" d="M315.27,164.92c-0.68-0.15-1.97,0.55-2.13-0.5c-0.22-1.43,1.32-0.92,2.1-1.18c0.66-0.21,1.39-0.22,2.1-0.26
		c0.48-0.03,1.23-0.42,1.26,0.49c0.02,0.65-0.35,1.22-1.11,1.31C316.79,164.85,316.08,164.87,315.27,164.92z"/>
	<path class="st1139" d="M314.45,167.46c-0.16-0.03-0.48-0.05-0.77-0.14c-0.21-0.06-0.43-0.16-0.47-0.46
		c-0.05-0.37,0.11-0.69,0.39-0.79c1.2-0.42,2.47-0.6,3.73-0.49c0.52,0.05,0.48,0.51,0.13,0.87
		C316.67,167.26,315.64,167.35,314.45,167.46z"/>
	<path class="st1140" d="M270.9,100.95c0.03,2.37-1.66,4.13-3.95,4.12c-2.09-0.01-3.74-1.65-3.8-3.76
		c-0.07-2.46,1.71-4.43,3.98-4.41C269.27,96.91,270.87,98.63,270.9,100.95z"/>
	<path class="st0" d="M280.07,100.1c-0.23,1.81-0.46,3.61-0.67,5.42c-0.1,0.82-0.58,1.02-1.33,0.95c-1.94-0.19-3.4-2.3-3.18-4.61
		c0.19-1.98,1.99-3.63,3.82-3.52C279.85,98.42,280.23,99.03,280.07,100.1z"/>
	<path class="st0" d="M279.97,106.13c0.74-2.44,0.29-4.52,0.92-6.56C283.16,101.84,282.98,103.88,279.97,106.13z"/>
	<path class="st1141" d="M263.41,215.61c1.43-1.33,3.07-0.62,4.65-0.46c0.11,0.15,0.76,0.39,0.21,0.44
		C266.66,215.74,265.03,215.62,263.41,215.61z"/>
	<path class="st919" d="M273.38,112.7c-2.77,1.1-4.65,0.6-5.94-1.72C269.43,112.34,271.34,112.77,273.38,112.7z"/>
	<path class="st919" d="M267.31,102.88c-0.63-0.04-0.78-0.48-0.81-0.97c-0.05-0.67,0.06-1.3,0.91-1.33
		c0.57-0.03,0.83,0.43,0.86,0.91C268.3,102.17,268.01,102.69,267.31,102.88z"/>
	<path class="st919" d="M278.17,103.02c-0.1,0.55-0.33,1.07-1.04,0.99c-0.68-0.08-0.87-0.65-0.85-1.23c0.02-0.63,0.41-1.1,1.05-1.03
		C277.97,101.81,278.19,102.36,278.17,103.02z"/>
</g>
</svg>
